solid
 facet normal  0.000000e+00  1.000000e+00 -0.000000e+00
   outer loop
     vertex  6.050000e+00  5.725000e+00  1.000000e-01
     vertex -5.900000e+00  5.725000e+00  1.000000e-01
     vertex -5.900000e+00  5.725000e+00  1.780000e+00
   endloop
 endfacet
 facet normal  0.000000e+00  1.000000e+00 -0.000000e+00
   outer loop
     vertex  6.050000e+00  5.725000e+00  1.000000e-01
     vertex -5.900000e+00  5.725000e+00  1.780000e+00
     vertex  6.050000e+00  5.725000e+00  1.780000e+00
   endloop
 endfacet
 facet normal  1.000000e+00  7.757017e-17 -0.000000e+00
   outer loop
     vertex  6.050000e+00 -5.725000e+00  1.000000e-01
     vertex  6.050000e+00  5.725000e+00  1.000000e-01
     vertex  6.050000e+00  5.725000e+00  1.780000e+00
   endloop
 endfacet
 facet normal  1.000000e+00  7.757017e-17  0.000000e+00
   outer loop
     vertex  6.050000e+00 -5.725000e+00  1.000000e-01
     vertex  6.050000e+00  5.725000e+00  1.780000e+00
     vertex  6.050000e+00 -5.725000e+00  1.780000e+00
   endloop
 endfacet
 facet normal  0.000000e+00 -1.000000e+00  0.000000e+00
   outer loop
     vertex -5.900000e+00 -5.725000e+00  1.000000e-01
     vertex  6.050000e+00 -5.725000e+00  1.000000e-01
     vertex  6.050000e+00 -5.725000e+00  1.780000e+00
   endloop
 endfacet
 facet normal  0.000000e+00 -1.000000e+00  0.000000e+00
   outer loop
     vertex -5.900000e+00 -5.725000e+00  1.000000e-01
     vertex  6.050000e+00 -5.725000e+00  1.780000e+00
     vertex -5.900000e+00 -5.725000e+00  1.780000e+00
   endloop
 endfacet
 facet normal -1.000000e+00  0.000000e+00  0.000000e+00
   outer loop
     vertex -5.900000e+00  5.725000e+00  1.000000e-01
     vertex -5.900000e+00 -5.725000e+00  1.000000e-01
     vertex -5.900000e+00 -5.725000e+00  1.780000e+00
   endloop
 endfacet
 facet normal -1.000000e+00  0.000000e+00  0.000000e+00
   outer loop
     vertex -5.900000e+00  5.725000e+00  1.000000e-01
     vertex -5.900000e+00 -5.725000e+00  1.780000e+00
     vertex -5.900000e+00  5.725000e+00  1.780000e+00
   endloop
 endfacet
 facet normal  0.000000e+00  0.000000e+00 -1.000000e+00
   outer loop
     vertex  6.050000e+00 -5.725000e+00  1.000000e-01
     vertex -5.900000e+00 -5.725000e+00  1.000000e-01
     vertex  6.050000e+00  5.725000e+00  1.000000e-01
   endloop
 endfacet
 facet normal  0.000000e+00  0.000000e+00 -1.000000e+00
   outer loop
     vertex -5.900000e+00 -5.725000e+00  1.000000e-01
     vertex -5.900000e+00  5.725000e+00  1.000000e-01
     vertex  6.050000e+00  5.725000e+00  1.000000e-01
   endloop
 endfacet
 facet normal -0.000000e+00  0.000000e+00  1.000000e+00
   outer loop
     vertex  6.050000e+00  5.725000e+00  1.780000e+00
     vertex -5.900000e+00 -5.725000e+00  1.780000e+00
     vertex  6.050000e+00 -5.725000e+00  1.780000e+00
   endloop
 endfacet
 facet normal  0.000000e+00  0.000000e+00  1.000000e+00
   outer loop
     vertex  6.050000e+00  5.725000e+00  1.780000e+00
     vertex -5.900000e+00  5.725000e+00  1.780000e+00
     vertex -5.900000e+00 -5.725000e+00  1.780000e+00
   endloop
 endfacet
 facet normal -1.000000e+00 -0.000000e+00 -0.000000e+00
   outer loop
     vertex  2.995000e+00 -4.545000e+00  1.000000e-01
     vertex  2.995000e+00 -4.545000e+00  0.000000e+00
     vertex  2.995000e+00 -6.155000e+00  1.000000e-01
   endloop
 endfacet
 facet normal -1.000000e+00  0.000000e+00  0.000000e+00
   outer loop
     vertex  2.995000e+00 -4.545000e+00  0.000000e+00
     vertex  2.995000e+00 -6.155000e+00  0.000000e+00
     vertex  2.995000e+00 -6.155000e+00  1.000000e-01
   endloop
 endfacet
 facet normal  1.000000e+00 -0.000000e+00  0.000000e+00
   outer loop
     vertex  3.555000e+00 -6.155000e+00  1.000000e-01
     vertex  3.555000e+00 -4.545000e+00  0.000000e+00
     vertex  3.555000e+00 -4.545000e+00  1.000000e-01
   endloop
 endfacet
 facet normal  1.000000e+00 -0.000000e+00  0.000000e+00
   outer loop
     vertex  3.555000e+00 -6.155000e+00  1.000000e-01
     vertex  3.555000e+00 -6.155000e+00  0.000000e+00
     vertex  3.555000e+00 -4.545000e+00  0.000000e+00
   endloop
 endfacet
 facet normal  0.000000e+00 -1.000000e+00  0.000000e+00
   outer loop
     vertex  2.995000e+00 -6.155000e+00  0.000000e+00
     vertex  3.555000e+00 -6.155000e+00  0.000000e+00
     vertex  3.555000e+00 -6.155000e+00  1.000000e-01
   endloop
 endfacet
 facet normal  0.000000e+00 -1.000000e+00  0.000000e+00
   outer loop
     vertex  2.995000e+00 -6.155000e+00  1.000000e-01
     vertex  2.995000e+00 -6.155000e+00  0.000000e+00
     vertex  3.555000e+00 -6.155000e+00  1.000000e-01
   endloop
 endfacet
 facet normal  0.000000e+00  1.000000e+00  0.000000e+00
   outer loop
     vertex  3.555000e+00 -4.545000e+00  1.000000e-01
     vertex  3.555000e+00 -4.545000e+00  0.000000e+00
     vertex  2.995000e+00 -4.545000e+00  0.000000e+00
   endloop
 endfacet
 facet normal  0.000000e+00  1.000000e+00 -0.000000e+00
   outer loop
     vertex  3.555000e+00 -4.545000e+00  1.000000e-01
     vertex  2.995000e+00 -4.545000e+00  0.000000e+00
     vertex  2.995000e+00 -4.545000e+00  1.000000e-01
   endloop
 endfacet
 facet normal  0.000000e+00  0.000000e+00 -1.000000e+00
   outer loop
     vertex  2.995000e+00 -6.155000e+00  0.000000e+00
     vertex  2.995000e+00 -4.545000e+00  0.000000e+00
     vertex  3.555000e+00 -4.545000e+00  0.000000e+00
   endloop
 endfacet
 facet normal  0.000000e+00  0.000000e+00 -1.000000e+00
   outer loop
     vertex  3.555000e+00 -6.155000e+00  0.000000e+00
     vertex  2.995000e+00 -6.155000e+00  0.000000e+00
     vertex  3.555000e+00 -4.545000e+00  0.000000e+00
   endloop
 endfacet
 facet normal  0.000000e+00  0.000000e+00  1.000000e+00
   outer loop
     vertex  3.555000e+00 -4.545000e+00  1.000000e-01
     vertex  2.995000e+00 -4.545000e+00  1.000000e-01
     vertex  2.995000e+00 -6.155000e+00  1.000000e-01
   endloop
 endfacet
 facet normal -0.000000e+00  0.000000e+00  1.000000e+00
   outer loop
     vertex  3.555000e+00 -4.545000e+00  1.000000e-01
     vertex  2.995000e+00 -6.155000e+00  1.000000e-01
     vertex  3.555000e+00 -6.155000e+00  1.000000e-01
   endloop
 endfacet
 facet normal -1.000000e+00 -0.000000e+00 -0.000000e+00
   outer loop
     vertex  1.895000e+00 -4.545000e+00  1.000000e-01
     vertex  1.895000e+00 -4.545000e+00  0.000000e+00
     vertex  1.895000e+00 -6.155000e+00  0.000000e+00
   endloop
 endfacet
 facet normal -1.000000e+00 -0.000000e+00  0.000000e+00
   outer loop
     vertex  1.895000e+00 -4.545000e+00  1.000000e-01
     vertex  1.895000e+00 -6.155000e+00  0.000000e+00
     vertex  1.895000e+00 -6.155000e+00  1.000000e-01
   endloop
 endfacet
 facet normal  1.000000e+00  0.000000e+00  0.000000e+00
   outer loop
     vertex  2.455000e+00 -6.155000e+00  0.000000e+00
     vertex  2.455000e+00 -4.545000e+00  0.000000e+00
     vertex  2.455000e+00 -4.545000e+00  1.000000e-01
   endloop
 endfacet
 facet normal  1.000000e+00 -0.000000e+00  0.000000e+00
   outer loop
     vertex  2.455000e+00 -6.155000e+00  1.000000e-01
     vertex  2.455000e+00 -6.155000e+00  0.000000e+00
     vertex  2.455000e+00 -4.545000e+00  1.000000e-01
   endloop
 endfacet
 facet normal  0.000000e+00 -1.000000e+00  0.000000e+00
   outer loop
     vertex  1.895000e+00 -6.155000e+00  0.000000e+00
     vertex  2.455000e+00 -6.155000e+00  0.000000e+00
     vertex  2.455000e+00 -6.155000e+00  1.000000e-01
   endloop
 endfacet
 facet normal  0.000000e+00 -1.000000e+00  0.000000e+00
   outer loop
     vertex  1.895000e+00 -6.155000e+00  1.000000e-01
     vertex  1.895000e+00 -6.155000e+00  0.000000e+00
     vertex  2.455000e+00 -6.155000e+00  1.000000e-01
   endloop
 endfacet
 facet normal  0.000000e+00  1.000000e+00  0.000000e+00
   outer loop
     vertex  2.455000e+00 -4.545000e+00  1.000000e-01
     vertex  2.455000e+00 -4.545000e+00  0.000000e+00
     vertex  1.895000e+00 -4.545000e+00  0.000000e+00
   endloop
 endfacet
 facet normal  0.000000e+00  1.000000e+00 -0.000000e+00
   outer loop
     vertex  2.455000e+00 -4.545000e+00  1.000000e-01
     vertex  1.895000e+00 -4.545000e+00  0.000000e+00
     vertex  1.895000e+00 -4.545000e+00  1.000000e-01
   endloop
 endfacet
 facet normal  0.000000e+00  0.000000e+00 -1.000000e+00
   outer loop
     vertex  2.455000e+00 -6.155000e+00  0.000000e+00
     vertex  1.895000e+00 -6.155000e+00  0.000000e+00
     vertex  1.895000e+00 -4.545000e+00  0.000000e+00
   endloop
 endfacet
 facet normal  0.000000e+00  0.000000e+00 -1.000000e+00
   outer loop
     vertex  2.455000e+00 -6.155000e+00  0.000000e+00
     vertex  1.895000e+00 -4.545000e+00  0.000000e+00
     vertex  2.455000e+00 -4.545000e+00  0.000000e+00
   endloop
 endfacet
 facet normal -0.000000e+00  0.000000e+00  1.000000e+00
   outer loop
     vertex  1.895000e+00 -4.545000e+00  1.000000e-01
     vertex  1.895000e+00 -6.155000e+00  1.000000e-01
     vertex  2.455000e+00 -6.155000e+00  1.000000e-01
   endloop
 endfacet
 facet normal  0.000000e+00  0.000000e+00  1.000000e+00
   outer loop
     vertex  2.455000e+00 -4.545000e+00  1.000000e-01
     vertex  1.895000e+00 -4.545000e+00  1.000000e-01
     vertex  2.455000e+00 -6.155000e+00  1.000000e-01
   endloop
 endfacet
 facet normal -1.000000e+00 -0.000000e+00 -0.000000e+00
   outer loop
     vertex  7.950000e-01 -4.545000e+00  1.000000e-01
     vertex  7.950000e-01 -4.545000e+00  0.000000e+00
     vertex  7.950000e-01 -6.155000e+00  1.000000e-01
   endloop
 endfacet
 facet normal -1.000000e+00  0.000000e+00  0.000000e+00
   outer loop
     vertex  7.950000e-01 -4.545000e+00  0.000000e+00
     vertex  7.950000e-01 -6.155000e+00  0.000000e+00
     vertex  7.950000e-01 -6.155000e+00  1.000000e-01
   endloop
 endfacet
 facet normal  1.000000e+00 -0.000000e+00  0.000000e+00
   outer loop
     vertex  1.355000e+00 -6.155000e+00  1.000000e-01
     vertex  1.355000e+00 -4.545000e+00  0.000000e+00
     vertex  1.355000e+00 -4.545000e+00  1.000000e-01
   endloop
 endfacet
 facet normal  1.000000e+00 -0.000000e+00  0.000000e+00
   outer loop
     vertex  1.355000e+00 -6.155000e+00  1.000000e-01
     vertex  1.355000e+00 -6.155000e+00  0.000000e+00
     vertex  1.355000e+00 -4.545000e+00  0.000000e+00
   endloop
 endfacet
 facet normal  0.000000e+00 -1.000000e+00  0.000000e+00
   outer loop
     vertex  7.950000e-01 -6.155000e+00  0.000000e+00
     vertex  1.355000e+00 -6.155000e+00  0.000000e+00
     vertex  1.355000e+00 -6.155000e+00  1.000000e-01
   endloop
 endfacet
 facet normal  0.000000e+00 -1.000000e+00  0.000000e+00
   outer loop
     vertex  7.950000e-01 -6.155000e+00  1.000000e-01
     vertex  7.950000e-01 -6.155000e+00  0.000000e+00
     vertex  1.355000e+00 -6.155000e+00  1.000000e-01
   endloop
 endfacet
 facet normal  0.000000e+00  1.000000e+00  0.000000e+00
   outer loop
     vertex  1.355000e+00 -4.545000e+00  1.000000e-01
     vertex  1.355000e+00 -4.545000e+00  0.000000e+00
     vertex  7.950000e-01 -4.545000e+00  0.000000e+00
   endloop
 endfacet
 facet normal  0.000000e+00  1.000000e+00 -0.000000e+00
   outer loop
     vertex  1.355000e+00 -4.545000e+00  1.000000e-01
     vertex  7.950000e-01 -4.545000e+00  0.000000e+00
     vertex  7.950000e-01 -4.545000e+00  1.000000e-01
   endloop
 endfacet
 facet normal  0.000000e+00  0.000000e+00 -1.000000e+00
   outer loop
     vertex  1.355000e+00 -6.155000e+00  0.000000e+00
     vertex  7.950000e-01 -6.155000e+00  0.000000e+00
     vertex  7.950000e-01 -4.545000e+00  0.000000e+00
   endloop
 endfacet
 facet normal  0.000000e+00  0.000000e+00 -1.000000e+00
   outer loop
     vertex  1.355000e+00 -6.155000e+00  0.000000e+00
     vertex  7.950000e-01 -4.545000e+00  0.000000e+00
     vertex  1.355000e+00 -4.545000e+00  0.000000e+00
   endloop
 endfacet
 facet normal -0.000000e+00  0.000000e+00  1.000000e+00
   outer loop
     vertex  7.950000e-01 -4.545000e+00  1.000000e-01
     vertex  7.950000e-01 -6.155000e+00  1.000000e-01
     vertex  1.355000e+00 -6.155000e+00  1.000000e-01
   endloop
 endfacet
 facet normal  0.000000e+00  0.000000e+00  1.000000e+00
   outer loop
     vertex  1.355000e+00 -4.545000e+00  1.000000e-01
     vertex  7.950000e-01 -4.545000e+00  1.000000e-01
     vertex  1.355000e+00 -6.155000e+00  1.000000e-01
   endloop
 endfacet
 facet normal -1.000000e+00 -0.000000e+00 -0.000000e+00
   outer loop
     vertex -3.050000e-01 -4.545000e+00  1.000000e-01
     vertex -3.050000e-01 -4.545000e+00  0.000000e+00
     vertex -3.050000e-01 -6.155000e+00  0.000000e+00
   endloop
 endfacet
 facet normal -1.000000e+00 -0.000000e+00  0.000000e+00
   outer loop
     vertex -3.050000e-01 -4.545000e+00  1.000000e-01
     vertex -3.050000e-01 -6.155000e+00  0.000000e+00
     vertex -3.050000e-01 -6.155000e+00  1.000000e-01
   endloop
 endfacet
 facet normal  1.000000e+00  0.000000e+00  0.000000e+00
   outer loop
     vertex  2.550000e-01 -6.155000e+00  0.000000e+00
     vertex  2.550000e-01 -4.545000e+00  0.000000e+00
     vertex  2.550000e-01 -4.545000e+00  1.000000e-01
   endloop
 endfacet
 facet normal  1.000000e+00 -0.000000e+00  0.000000e+00
   outer loop
     vertex  2.550000e-01 -6.155000e+00  1.000000e-01
     vertex  2.550000e-01 -6.155000e+00  0.000000e+00
     vertex  2.550000e-01 -4.545000e+00  1.000000e-01
   endloop
 endfacet
 facet normal  0.000000e+00 -1.000000e+00  0.000000e+00
   outer loop
     vertex -3.050000e-01 -6.155000e+00  0.000000e+00
     vertex  2.550000e-01 -6.155000e+00  0.000000e+00
     vertex  2.550000e-01 -6.155000e+00  1.000000e-01
   endloop
 endfacet
 facet normal  0.000000e+00 -1.000000e+00  0.000000e+00
   outer loop
     vertex -3.050000e-01 -6.155000e+00  1.000000e-01
     vertex -3.050000e-01 -6.155000e+00  0.000000e+00
     vertex  2.550000e-01 -6.155000e+00  1.000000e-01
   endloop
 endfacet
 facet normal  0.000000e+00  1.000000e+00  0.000000e+00
   outer loop
     vertex  2.550000e-01 -4.545000e+00  1.000000e-01
     vertex  2.550000e-01 -4.545000e+00  0.000000e+00
     vertex -3.050000e-01 -4.545000e+00  0.000000e+00
   endloop
 endfacet
 facet normal  0.000000e+00  1.000000e+00 -0.000000e+00
   outer loop
     vertex  2.550000e-01 -4.545000e+00  1.000000e-01
     vertex -3.050000e-01 -4.545000e+00  0.000000e+00
     vertex -3.050000e-01 -4.545000e+00  1.000000e-01
   endloop
 endfacet
 facet normal  0.000000e+00  0.000000e+00 -1.000000e+00
   outer loop
     vertex  2.550000e-01 -6.155000e+00  0.000000e+00
     vertex -3.050000e-01 -6.155000e+00  0.000000e+00
     vertex -3.050000e-01 -4.545000e+00  0.000000e+00
   endloop
 endfacet
 facet normal  0.000000e+00  0.000000e+00 -1.000000e+00
   outer loop
     vertex  2.550000e-01 -6.155000e+00  0.000000e+00
     vertex -3.050000e-01 -4.545000e+00  0.000000e+00
     vertex  2.550000e-01 -4.545000e+00  0.000000e+00
   endloop
 endfacet
 facet normal -0.000000e+00  0.000000e+00  1.000000e+00
   outer loop
     vertex -3.050000e-01 -4.545000e+00  1.000000e-01
     vertex -3.050000e-01 -6.155000e+00  1.000000e-01
     vertex  2.550000e-01 -6.155000e+00  1.000000e-01
   endloop
 endfacet
 facet normal  0.000000e+00  0.000000e+00  1.000000e+00
   outer loop
     vertex  2.550000e-01 -4.545000e+00  1.000000e-01
     vertex -3.050000e-01 -4.545000e+00  1.000000e-01
     vertex  2.550000e-01 -6.155000e+00  1.000000e-01
   endloop
 endfacet
 facet normal -1.000000e+00 -0.000000e+00 -0.000000e+00
   outer loop
     vertex -1.405000e+00 -4.545000e+00  1.000000e-01
     vertex -1.405000e+00 -4.545000e+00  0.000000e+00
     vertex -1.405000e+00 -6.155000e+00  1.000000e-01
   endloop
 endfacet
 facet normal -1.000000e+00  0.000000e+00  0.000000e+00
   outer loop
     vertex -1.405000e+00 -4.545000e+00  0.000000e+00
     vertex -1.405000e+00 -6.155000e+00  0.000000e+00
     vertex -1.405000e+00 -6.155000e+00  1.000000e-01
   endloop
 endfacet
 facet normal  1.000000e+00 -0.000000e+00  0.000000e+00
   outer loop
     vertex -8.450000e-01 -6.155000e+00  1.000000e-01
     vertex -8.450000e-01 -4.545000e+00  0.000000e+00
     vertex -8.450000e-01 -4.545000e+00  1.000000e-01
   endloop
 endfacet
 facet normal  1.000000e+00 -0.000000e+00  0.000000e+00
   outer loop
     vertex -8.450000e-01 -6.155000e+00  1.000000e-01
     vertex -8.450000e-01 -6.155000e+00  0.000000e+00
     vertex -8.450000e-01 -4.545000e+00  0.000000e+00
   endloop
 endfacet
 facet normal  0.000000e+00 -1.000000e+00  0.000000e+00
   outer loop
     vertex -1.405000e+00 -6.155000e+00  0.000000e+00
     vertex -8.450000e-01 -6.155000e+00  0.000000e+00
     vertex -8.450000e-01 -6.155000e+00  1.000000e-01
   endloop
 endfacet
 facet normal  0.000000e+00 -1.000000e+00  0.000000e+00
   outer loop
     vertex -1.405000e+00 -6.155000e+00  1.000000e-01
     vertex -1.405000e+00 -6.155000e+00  0.000000e+00
     vertex -8.450000e-01 -6.155000e+00  1.000000e-01
   endloop
 endfacet
 facet normal  0.000000e+00  1.000000e+00  0.000000e+00
   outer loop
     vertex -8.450000e-01 -4.545000e+00  1.000000e-01
     vertex -8.450000e-01 -4.545000e+00  0.000000e+00
     vertex -1.405000e+00 -4.545000e+00  0.000000e+00
   endloop
 endfacet
 facet normal  0.000000e+00  1.000000e+00 -0.000000e+00
   outer loop
     vertex -8.450000e-01 -4.545000e+00  1.000000e-01
     vertex -1.405000e+00 -4.545000e+00  0.000000e+00
     vertex -1.405000e+00 -4.545000e+00  1.000000e-01
   endloop
 endfacet
 facet normal  0.000000e+00  0.000000e+00 -1.000000e+00
   outer loop
     vertex -8.450000e-01 -6.155000e+00  0.000000e+00
     vertex -1.405000e+00 -6.155000e+00  0.000000e+00
     vertex -1.405000e+00 -4.545000e+00  0.000000e+00
   endloop
 endfacet
 facet normal  0.000000e+00  0.000000e+00 -1.000000e+00
   outer loop
     vertex -8.450000e-01 -6.155000e+00  0.000000e+00
     vertex -1.405000e+00 -4.545000e+00  0.000000e+00
     vertex -8.450000e-01 -4.545000e+00  0.000000e+00
   endloop
 endfacet
 facet normal -0.000000e+00  0.000000e+00  1.000000e+00
   outer loop
     vertex -1.405000e+00 -4.545000e+00  1.000000e-01
     vertex -1.405000e+00 -6.155000e+00  1.000000e-01
     vertex -8.450000e-01 -6.155000e+00  1.000000e-01
   endloop
 endfacet
 facet normal  0.000000e+00  0.000000e+00  1.000000e+00
   outer loop
     vertex -8.450000e-01 -4.545000e+00  1.000000e-01
     vertex -1.405000e+00 -4.545000e+00  1.000000e-01
     vertex -8.450000e-01 -6.155000e+00  1.000000e-01
   endloop
 endfacet
 facet normal -1.000000e+00 -0.000000e+00 -0.000000e+00
   outer loop
     vertex -2.505000e+00 -4.545000e+00  1.000000e-01
     vertex -2.505000e+00 -4.545000e+00  0.000000e+00
     vertex -2.505000e+00 -6.155000e+00  1.000000e-01
   endloop
 endfacet
 facet normal -1.000000e+00  0.000000e+00  0.000000e+00
   outer loop
     vertex -2.505000e+00 -4.545000e+00  0.000000e+00
     vertex -2.505000e+00 -6.155000e+00  0.000000e+00
     vertex -2.505000e+00 -6.155000e+00  1.000000e-01
   endloop
 endfacet
 facet normal  1.000000e+00 -0.000000e+00  0.000000e+00
   outer loop
     vertex -1.945000e+00 -6.155000e+00  1.000000e-01
     vertex -1.945000e+00 -4.545000e+00  0.000000e+00
     vertex -1.945000e+00 -4.545000e+00  1.000000e-01
   endloop
 endfacet
 facet normal  1.000000e+00 -0.000000e+00  0.000000e+00
   outer loop
     vertex -1.945000e+00 -6.155000e+00  1.000000e-01
     vertex -1.945000e+00 -6.155000e+00  0.000000e+00
     vertex -1.945000e+00 -4.545000e+00  0.000000e+00
   endloop
 endfacet
 facet normal  0.000000e+00 -1.000000e+00  0.000000e+00
   outer loop
     vertex -2.505000e+00 -6.155000e+00  0.000000e+00
     vertex -1.945000e+00 -6.155000e+00  0.000000e+00
     vertex -1.945000e+00 -6.155000e+00  1.000000e-01
   endloop
 endfacet
 facet normal  0.000000e+00 -1.000000e+00  0.000000e+00
   outer loop
     vertex -2.505000e+00 -6.155000e+00  1.000000e-01
     vertex -2.505000e+00 -6.155000e+00  0.000000e+00
     vertex -1.945000e+00 -6.155000e+00  1.000000e-01
   endloop
 endfacet
 facet normal  0.000000e+00  1.000000e+00  0.000000e+00
   outer loop
     vertex -1.945000e+00 -4.545000e+00  1.000000e-01
     vertex -1.945000e+00 -4.545000e+00  0.000000e+00
     vertex -2.505000e+00 -4.545000e+00  0.000000e+00
   endloop
 endfacet
 facet normal  0.000000e+00  1.000000e+00 -0.000000e+00
   outer loop
     vertex -1.945000e+00 -4.545000e+00  1.000000e-01
     vertex -2.505000e+00 -4.545000e+00  0.000000e+00
     vertex -2.505000e+00 -4.545000e+00  1.000000e-01
   endloop
 endfacet
 facet normal  0.000000e+00  0.000000e+00 -1.000000e+00
   outer loop
     vertex -2.505000e+00 -6.155000e+00  0.000000e+00
     vertex -2.505000e+00 -4.545000e+00  0.000000e+00
     vertex -1.945000e+00 -4.545000e+00  0.000000e+00
   endloop
 endfacet
 facet normal  0.000000e+00  0.000000e+00 -1.000000e+00
   outer loop
     vertex -1.945000e+00 -6.155000e+00  0.000000e+00
     vertex -2.505000e+00 -6.155000e+00  0.000000e+00
     vertex -1.945000e+00 -4.545000e+00  0.000000e+00
   endloop
 endfacet
 facet normal  0.000000e+00  0.000000e+00  1.000000e+00
   outer loop
     vertex -1.945000e+00 -4.545000e+00  1.000000e-01
     vertex -2.505000e+00 -4.545000e+00  1.000000e-01
     vertex -2.505000e+00 -6.155000e+00  1.000000e-01
   endloop
 endfacet
 facet normal -0.000000e+00  0.000000e+00  1.000000e+00
   outer loop
     vertex -1.945000e+00 -4.545000e+00  1.000000e-01
     vertex -2.505000e+00 -6.155000e+00  1.000000e-01
     vertex -1.945000e+00 -6.155000e+00  1.000000e-01
   endloop
 endfacet
 facet normal -1.000000e+00 -0.000000e+00 -0.000000e+00
   outer loop
     vertex -3.605000e+00 -4.545000e+00  1.000000e-01
     vertex -3.605000e+00 -4.545000e+00  0.000000e+00
     vertex -3.605000e+00 -6.155000e+00  0.000000e+00
   endloop
 endfacet
 facet normal -1.000000e+00 -0.000000e+00  0.000000e+00
   outer loop
     vertex -3.605000e+00 -4.545000e+00  1.000000e-01
     vertex -3.605000e+00 -6.155000e+00  0.000000e+00
     vertex -3.605000e+00 -6.155000e+00  1.000000e-01
   endloop
 endfacet
 facet normal  1.000000e+00  0.000000e+00  0.000000e+00
   outer loop
     vertex -3.045000e+00 -6.155000e+00  0.000000e+00
     vertex -3.045000e+00 -4.545000e+00  0.000000e+00
     vertex -3.045000e+00 -4.545000e+00  1.000000e-01
   endloop
 endfacet
 facet normal  1.000000e+00 -0.000000e+00  0.000000e+00
   outer loop
     vertex -3.045000e+00 -6.155000e+00  1.000000e-01
     vertex -3.045000e+00 -6.155000e+00  0.000000e+00
     vertex -3.045000e+00 -4.545000e+00  1.000000e-01
   endloop
 endfacet
 facet normal  0.000000e+00 -1.000000e+00  0.000000e+00
   outer loop
     vertex -3.605000e+00 -6.155000e+00  0.000000e+00
     vertex -3.045000e+00 -6.155000e+00  0.000000e+00
     vertex -3.045000e+00 -6.155000e+00  1.000000e-01
   endloop
 endfacet
 facet normal  0.000000e+00 -1.000000e+00  0.000000e+00
   outer loop
     vertex -3.605000e+00 -6.155000e+00  1.000000e-01
     vertex -3.605000e+00 -6.155000e+00  0.000000e+00
     vertex -3.045000e+00 -6.155000e+00  1.000000e-01
   endloop
 endfacet
 facet normal  0.000000e+00  1.000000e+00  0.000000e+00
   outer loop
     vertex -3.045000e+00 -4.545000e+00  1.000000e-01
     vertex -3.045000e+00 -4.545000e+00  0.000000e+00
     vertex -3.605000e+00 -4.545000e+00  0.000000e+00
   endloop
 endfacet
 facet normal  0.000000e+00  1.000000e+00 -0.000000e+00
   outer loop
     vertex -3.045000e+00 -4.545000e+00  1.000000e-01
     vertex -3.605000e+00 -4.545000e+00  0.000000e+00
     vertex -3.605000e+00 -4.545000e+00  1.000000e-01
   endloop
 endfacet
 facet normal  0.000000e+00  0.000000e+00 -1.000000e+00
   outer loop
     vertex -3.605000e+00 -6.155000e+00  0.000000e+00
     vertex -3.605000e+00 -4.545000e+00  0.000000e+00
     vertex -3.045000e+00 -4.545000e+00  0.000000e+00
   endloop
 endfacet
 facet normal  0.000000e+00  0.000000e+00 -1.000000e+00
   outer loop
     vertex -3.045000e+00 -6.155000e+00  0.000000e+00
     vertex -3.605000e+00 -6.155000e+00  0.000000e+00
     vertex -3.045000e+00 -4.545000e+00  0.000000e+00
   endloop
 endfacet
 facet normal  0.000000e+00  0.000000e+00  1.000000e+00
   outer loop
     vertex -3.045000e+00 -4.545000e+00  1.000000e-01
     vertex -3.605000e+00 -4.545000e+00  1.000000e-01
     vertex -3.605000e+00 -6.155000e+00  1.000000e-01
   endloop
 endfacet
 facet normal -0.000000e+00  0.000000e+00  1.000000e+00
   outer loop
     vertex -3.045000e+00 -4.545000e+00  1.000000e-01
     vertex -3.605000e+00 -6.155000e+00  1.000000e-01
     vertex -3.045000e+00 -6.155000e+00  1.000000e-01
   endloop
 endfacet
 facet normal -1.000000e+00 -0.000000e+00 -0.000000e+00
   outer loop
     vertex -4.705000e+00 -4.545000e+00  1.000000e-01
     vertex -4.705000e+00 -4.545000e+00  0.000000e+00
     vertex -4.705000e+00 -6.155000e+00  1.000000e-01
   endloop
 endfacet
 facet normal -1.000000e+00  0.000000e+00  0.000000e+00
   outer loop
     vertex -4.705000e+00 -4.545000e+00  0.000000e+00
     vertex -4.705000e+00 -6.155000e+00  0.000000e+00
     vertex -4.705000e+00 -6.155000e+00  1.000000e-01
   endloop
 endfacet
 facet normal  1.000000e+00 -0.000000e+00  0.000000e+00
   outer loop
     vertex -4.145000e+00 -6.155000e+00  1.000000e-01
     vertex -4.145000e+00 -4.545000e+00  0.000000e+00
     vertex -4.145000e+00 -4.545000e+00  1.000000e-01
   endloop
 endfacet
 facet normal  1.000000e+00 -0.000000e+00  0.000000e+00
   outer loop
     vertex -4.145000e+00 -6.155000e+00  1.000000e-01
     vertex -4.145000e+00 -6.155000e+00  0.000000e+00
     vertex -4.145000e+00 -4.545000e+00  0.000000e+00
   endloop
 endfacet
 facet normal  0.000000e+00 -1.000000e+00  0.000000e+00
   outer loop
     vertex -4.705000e+00 -6.155000e+00  0.000000e+00
     vertex -4.145000e+00 -6.155000e+00  0.000000e+00
     vertex -4.145000e+00 -6.155000e+00  1.000000e-01
   endloop
 endfacet
 facet normal  0.000000e+00 -1.000000e+00  0.000000e+00
   outer loop
     vertex -4.705000e+00 -6.155000e+00  1.000000e-01
     vertex -4.705000e+00 -6.155000e+00  0.000000e+00
     vertex -4.145000e+00 -6.155000e+00  1.000000e-01
   endloop
 endfacet
 facet normal  0.000000e+00  1.000000e+00  0.000000e+00
   outer loop
     vertex -4.145000e+00 -4.545000e+00  1.000000e-01
     vertex -4.145000e+00 -4.545000e+00  0.000000e+00
     vertex -4.705000e+00 -4.545000e+00  0.000000e+00
   endloop
 endfacet
 facet normal  0.000000e+00  1.000000e+00 -0.000000e+00
   outer loop
     vertex -4.145000e+00 -4.545000e+00  1.000000e-01
     vertex -4.705000e+00 -4.545000e+00  0.000000e+00
     vertex -4.705000e+00 -4.545000e+00  1.000000e-01
   endloop
 endfacet
 facet normal  0.000000e+00  0.000000e+00 -1.000000e+00
   outer loop
     vertex -4.705000e+00 -6.155000e+00  0.000000e+00
     vertex -4.705000e+00 -4.545000e+00  0.000000e+00
     vertex -4.145000e+00 -4.545000e+00  0.000000e+00
   endloop
 endfacet
 facet normal  0.000000e+00  0.000000e+00 -1.000000e+00
   outer loop
     vertex -4.145000e+00 -6.155000e+00  0.000000e+00
     vertex -4.705000e+00 -6.155000e+00  0.000000e+00
     vertex -4.145000e+00 -4.545000e+00  0.000000e+00
   endloop
 endfacet
 facet normal  0.000000e+00  0.000000e+00  1.000000e+00
   outer loop
     vertex -4.145000e+00 -4.545000e+00  1.000000e-01
     vertex -4.705000e+00 -4.545000e+00  1.000000e-01
     vertex -4.705000e+00 -6.155000e+00  1.000000e-01
   endloop
 endfacet
 facet normal -0.000000e+00  0.000000e+00  1.000000e+00
   outer loop
     vertex -4.145000e+00 -4.545000e+00  1.000000e-01
     vertex -4.705000e+00 -6.155000e+00  1.000000e-01
     vertex -4.145000e+00 -6.155000e+00  1.000000e-01
   endloop
 endfacet
 facet normal -1.000000e+00 -0.000000e+00 -0.000000e+00
   outer loop
     vertex -6.345000e+00 -4.605000e+00  1.000000e-01
     vertex -6.345000e+00 -4.605000e+00  0.000000e+00
     vertex -6.345000e+00 -5.645000e+00  1.000000e-01
   endloop
 endfacet
 facet normal -1.000000e+00  0.000000e+00  0.000000e+00
   outer loop
     vertex -6.345000e+00 -4.605000e+00  0.000000e+00
     vertex -6.345000e+00 -5.645000e+00  0.000000e+00
     vertex -6.345000e+00 -5.645000e+00  1.000000e-01
   endloop
 endfacet
 facet normal  1.000000e+00 -0.000000e+00  0.000000e+00
   outer loop
     vertex -5.105000e+00 -5.645000e+00  1.000000e-01
     vertex -5.105000e+00 -4.605000e+00  0.000000e+00
     vertex -5.105000e+00 -4.605000e+00  1.000000e-01
   endloop
 endfacet
 facet normal  1.000000e+00 -0.000000e+00  0.000000e+00
   outer loop
     vertex -5.105000e+00 -5.645000e+00  1.000000e-01
     vertex -5.105000e+00 -5.645000e+00  0.000000e+00
     vertex -5.105000e+00 -4.605000e+00  0.000000e+00
   endloop
 endfacet
 facet normal  0.000000e+00 -1.000000e+00  0.000000e+00
   outer loop
     vertex -6.345000e+00 -5.645000e+00  0.000000e+00
     vertex -5.105000e+00 -5.645000e+00  0.000000e+00
     vertex -5.105000e+00 -5.645000e+00  1.000000e-01
   endloop
 endfacet
 facet normal  0.000000e+00 -1.000000e+00  0.000000e+00
   outer loop
     vertex -6.345000e+00 -5.645000e+00  1.000000e-01
     vertex -6.345000e+00 -5.645000e+00  0.000000e+00
     vertex -5.105000e+00 -5.645000e+00  1.000000e-01
   endloop
 endfacet
 facet normal  0.000000e+00  1.000000e+00  0.000000e+00
   outer loop
     vertex -5.105000e+00 -4.605000e+00  1.000000e-01
     vertex -5.105000e+00 -4.605000e+00  0.000000e+00
     vertex -6.345000e+00 -4.605000e+00  0.000000e+00
   endloop
 endfacet
 facet normal  0.000000e+00  1.000000e+00 -0.000000e+00
   outer loop
     vertex -5.105000e+00 -4.605000e+00  1.000000e-01
     vertex -6.345000e+00 -4.605000e+00  0.000000e+00
     vertex -6.345000e+00 -4.605000e+00  1.000000e-01
   endloop
 endfacet
 facet normal  0.000000e+00  0.000000e+00 -1.000000e+00
   outer loop
     vertex -6.345000e+00 -5.645000e+00  0.000000e+00
     vertex -6.345000e+00 -4.605000e+00  0.000000e+00
     vertex -5.105000e+00 -5.645000e+00  0.000000e+00
   endloop
 endfacet
 facet normal  0.000000e+00  0.000000e+00 -1.000000e+00
   outer loop
     vertex -5.105000e+00 -5.645000e+00  0.000000e+00
     vertex -6.345000e+00 -4.605000e+00  0.000000e+00
     vertex -5.105000e+00 -4.605000e+00  0.000000e+00
   endloop
 endfacet
 facet normal  0.000000e+00  0.000000e+00  1.000000e+00
   outer loop
     vertex -5.105000e+00 -5.645000e+00  1.000000e-01
     vertex -6.345000e+00 -4.605000e+00  1.000000e-01
     vertex -6.345000e+00 -5.645000e+00  1.000000e-01
   endloop
 endfacet
 facet normal  0.000000e+00  0.000000e+00  1.000000e+00
   outer loop
     vertex -5.105000e+00 -4.605000e+00  1.000000e-01
     vertex -6.345000e+00 -4.605000e+00  1.000000e-01
     vertex -5.105000e+00 -5.645000e+00  1.000000e-01
   endloop
 endfacet
 facet normal -1.000000e+00 -0.000000e+00 -0.000000e+00
   outer loop
     vertex  5.105000e+00 -4.605000e+00  1.000000e-01
     vertex  5.105000e+00 -4.605000e+00  0.000000e+00
     vertex  5.105000e+00 -5.645000e+00  1.000000e-01
   endloop
 endfacet
 facet normal -1.000000e+00  0.000000e+00  0.000000e+00
   outer loop
     vertex  5.105000e+00 -4.605000e+00  0.000000e+00
     vertex  5.105000e+00 -5.645000e+00  0.000000e+00
     vertex  5.105000e+00 -5.645000e+00  1.000000e-01
   endloop
 endfacet
 facet normal  1.000000e+00 -0.000000e+00  0.000000e+00
   outer loop
     vertex  6.345000e+00 -5.645000e+00  1.000000e-01
     vertex  6.345000e+00 -4.605000e+00  0.000000e+00
     vertex  6.345000e+00 -4.605000e+00  1.000000e-01
   endloop
 endfacet
 facet normal  1.000000e+00 -0.000000e+00  0.000000e+00
   outer loop
     vertex  6.345000e+00 -5.645000e+00  1.000000e-01
     vertex  6.345000e+00 -5.645000e+00  0.000000e+00
     vertex  6.345000e+00 -4.605000e+00  0.000000e+00
   endloop
 endfacet
 facet normal  0.000000e+00 -1.000000e+00  0.000000e+00
   outer loop
     vertex  5.105000e+00 -5.645000e+00  0.000000e+00
     vertex  6.345000e+00 -5.645000e+00  0.000000e+00
     vertex  6.345000e+00 -5.645000e+00  1.000000e-01
   endloop
 endfacet
 facet normal  0.000000e+00 -1.000000e+00  0.000000e+00
   outer loop
     vertex  5.105000e+00 -5.645000e+00  1.000000e-01
     vertex  5.105000e+00 -5.645000e+00  0.000000e+00
     vertex  6.345000e+00 -5.645000e+00  1.000000e-01
   endloop
 endfacet
 facet normal  0.000000e+00  1.000000e+00  0.000000e+00
   outer loop
     vertex  6.345000e+00 -4.605000e+00  1.000000e-01
     vertex  6.345000e+00 -4.605000e+00  0.000000e+00
     vertex  5.105000e+00 -4.605000e+00  0.000000e+00
   endloop
 endfacet
 facet normal  0.000000e+00  1.000000e+00 -0.000000e+00
   outer loop
     vertex  6.345000e+00 -4.605000e+00  1.000000e-01
     vertex  5.105000e+00 -4.605000e+00  0.000000e+00
     vertex  5.105000e+00 -4.605000e+00  1.000000e-01
   endloop
 endfacet
 facet normal  0.000000e+00  0.000000e+00 -1.000000e+00
   outer loop
     vertex  5.105000e+00 -5.645000e+00  0.000000e+00
     vertex  5.105000e+00 -4.605000e+00  0.000000e+00
     vertex  6.345000e+00 -5.645000e+00  0.000000e+00
   endloop
 endfacet
 facet normal  0.000000e+00  0.000000e+00 -1.000000e+00
   outer loop
     vertex  6.345000e+00 -5.645000e+00  0.000000e+00
     vertex  5.105000e+00 -4.605000e+00  0.000000e+00
     vertex  6.345000e+00 -4.605000e+00  0.000000e+00
   endloop
 endfacet
 facet normal  0.000000e+00  0.000000e+00  1.000000e+00
   outer loop
     vertex  6.345000e+00 -5.645000e+00  1.000000e-01
     vertex  5.105000e+00 -4.605000e+00  1.000000e-01
     vertex  5.105000e+00 -5.645000e+00  1.000000e-01
   endloop
 endfacet
 facet normal  0.000000e+00  0.000000e+00  1.000000e+00
   outer loop
     vertex  6.345000e+00 -4.605000e+00  1.000000e-01
     vertex  5.105000e+00 -4.605000e+00  1.000000e-01
     vertex  6.345000e+00 -5.645000e+00  1.000000e-01
   endloop
 endfacet
 facet normal -1.000000e+00 -0.000000e+00 -0.000000e+00
   outer loop
     vertex -6.220000e+00  3.045000e+00  1.000000e-01
     vertex -6.220000e+00  3.045000e+00  0.000000e+00
     vertex -6.220000e+00  1.705000e+00  0.000000e+00
   endloop
 endfacet
 facet normal -1.000000e+00 -0.000000e+00  0.000000e+00
   outer loop
     vertex -6.220000e+00  3.045000e+00  1.000000e-01
     vertex -6.220000e+00  1.705000e+00  0.000000e+00
     vertex -6.220000e+00  1.705000e+00  1.000000e-01
   endloop
 endfacet
 facet normal  1.000000e+00  0.000000e+00  0.000000e+00
   outer loop
     vertex -5.580000e+00  1.705000e+00  0.000000e+00
     vertex -5.580000e+00  3.045000e+00  0.000000e+00
     vertex -5.580000e+00  3.045000e+00  1.000000e-01
   endloop
 endfacet
 facet normal  1.000000e+00 -0.000000e+00  0.000000e+00
   outer loop
     vertex -5.580000e+00  1.705000e+00  1.000000e-01
     vertex -5.580000e+00  1.705000e+00  0.000000e+00
     vertex -5.580000e+00  3.045000e+00  1.000000e-01
   endloop
 endfacet
 facet normal  0.000000e+00 -1.000000e+00  0.000000e+00
   outer loop
     vertex -6.220000e+00  1.705000e+00  0.000000e+00
     vertex -5.580000e+00  1.705000e+00  0.000000e+00
     vertex -5.580000e+00  1.705000e+00  1.000000e-01
   endloop
 endfacet
 facet normal  0.000000e+00 -1.000000e+00  0.000000e+00
   outer loop
     vertex -6.220000e+00  1.705000e+00  1.000000e-01
     vertex -6.220000e+00  1.705000e+00  0.000000e+00
     vertex -5.580000e+00  1.705000e+00  1.000000e-01
   endloop
 endfacet
 facet normal  0.000000e+00  1.000000e+00  0.000000e+00
   outer loop
     vertex -5.580000e+00  3.045000e+00  1.000000e-01
     vertex -5.580000e+00  3.045000e+00  0.000000e+00
     vertex -6.220000e+00  3.045000e+00  0.000000e+00
   endloop
 endfacet
 facet normal  0.000000e+00  1.000000e+00 -0.000000e+00
   outer loop
     vertex -5.580000e+00  3.045000e+00  1.000000e-01
     vertex -6.220000e+00  3.045000e+00  0.000000e+00
     vertex -6.220000e+00  3.045000e+00  1.000000e-01
   endloop
 endfacet
 facet normal  0.000000e+00  0.000000e+00 -1.000000e+00
   outer loop
     vertex -5.580000e+00  1.705000e+00  0.000000e+00
     vertex -6.220000e+00  1.705000e+00  0.000000e+00
     vertex -6.220000e+00  3.045000e+00  0.000000e+00
   endloop
 endfacet
 facet normal  0.000000e+00  0.000000e+00 -1.000000e+00
   outer loop
     vertex -5.580000e+00  1.705000e+00  0.000000e+00
     vertex -6.220000e+00  3.045000e+00  0.000000e+00
     vertex -5.580000e+00  3.045000e+00  0.000000e+00
   endloop
 endfacet
 facet normal -0.000000e+00  0.000000e+00  1.000000e+00
   outer loop
     vertex -6.220000e+00  3.045000e+00  1.000000e-01
     vertex -6.220000e+00  1.705000e+00  1.000000e-01
     vertex -5.580000e+00  1.705000e+00  1.000000e-01
   endloop
 endfacet
 facet normal  0.000000e+00  0.000000e+00  1.000000e+00
   outer loop
     vertex -5.580000e+00  3.045000e+00  1.000000e-01
     vertex -6.220000e+00  3.045000e+00  1.000000e-01
     vertex -5.580000e+00  1.705000e+00  1.000000e-01
   endloop
 endfacet
 facet normal -1.000000e+00 -0.000000e+00 -0.000000e+00
   outer loop
     vertex  5.730000e+00  3.645000e+00  1.000000e-01
     vertex  5.730000e+00  3.645000e+00  0.000000e+00
     vertex  5.730000e+00  2.405000e+00  1.000000e-01
   endloop
 endfacet
 facet normal -1.000000e+00  0.000000e+00  0.000000e+00
   outer loop
     vertex  5.730000e+00  3.645000e+00  0.000000e+00
     vertex  5.730000e+00  2.405000e+00  0.000000e+00
     vertex  5.730000e+00  2.405000e+00  1.000000e-01
   endloop
 endfacet
 facet normal  1.000000e+00 -0.000000e+00  0.000000e+00
   outer loop
     vertex  6.370000e+00  2.405000e+00  1.000000e-01
     vertex  6.370000e+00  3.645000e+00  0.000000e+00
     vertex  6.370000e+00  3.645000e+00  1.000000e-01
   endloop
 endfacet
 facet normal  1.000000e+00 -0.000000e+00  0.000000e+00
   outer loop
     vertex  6.370000e+00  2.405000e+00  1.000000e-01
     vertex  6.370000e+00  2.405000e+00  0.000000e+00
     vertex  6.370000e+00  3.645000e+00  0.000000e+00
   endloop
 endfacet
 facet normal  0.000000e+00 -1.000000e+00  0.000000e+00
   outer loop
     vertex  5.730000e+00  2.405000e+00  0.000000e+00
     vertex  6.370000e+00  2.405000e+00  0.000000e+00
     vertex  6.370000e+00  2.405000e+00  1.000000e-01
   endloop
 endfacet
 facet normal  0.000000e+00 -1.000000e+00  0.000000e+00
   outer loop
     vertex  5.730000e+00  2.405000e+00  1.000000e-01
     vertex  5.730000e+00  2.405000e+00  0.000000e+00
     vertex  6.370000e+00  2.405000e+00  1.000000e-01
   endloop
 endfacet
 facet normal  0.000000e+00  1.000000e+00  0.000000e+00
   outer loop
     vertex  6.370000e+00  3.645000e+00  1.000000e-01
     vertex  6.370000e+00  3.645000e+00  0.000000e+00
     vertex  5.730000e+00  3.645000e+00  0.000000e+00
   endloop
 endfacet
 facet normal  0.000000e+00  1.000000e+00 -0.000000e+00
   outer loop
     vertex  6.370000e+00  3.645000e+00  1.000000e-01
     vertex  5.730000e+00  3.645000e+00  0.000000e+00
     vertex  5.730000e+00  3.645000e+00  1.000000e-01
   endloop
 endfacet
 facet normal  0.000000e+00  0.000000e+00 -1.000000e+00
   outer loop
     vertex  5.730000e+00  2.405000e+00  0.000000e+00
     vertex  5.730000e+00  3.645000e+00  0.000000e+00
     vertex  6.370000e+00  3.645000e+00  0.000000e+00
   endloop
 endfacet
 facet normal  0.000000e+00  0.000000e+00 -1.000000e+00
   outer loop
     vertex  6.370000e+00  2.405000e+00  0.000000e+00
     vertex  5.730000e+00  2.405000e+00  0.000000e+00
     vertex  6.370000e+00  3.645000e+00  0.000000e+00
   endloop
 endfacet
 facet normal  0.000000e+00  0.000000e+00  1.000000e+00
   outer loop
     vertex  6.370000e+00  3.645000e+00  1.000000e-01
     vertex  5.730000e+00  3.645000e+00  1.000000e-01
     vertex  5.730000e+00  2.405000e+00  1.000000e-01
   endloop
 endfacet
 facet normal -0.000000e+00  0.000000e+00  1.000000e+00
   outer loop
     vertex  6.370000e+00  3.645000e+00  1.000000e-01
     vertex  5.730000e+00  2.405000e+00  1.000000e-01
     vertex  6.370000e+00  2.405000e+00  1.000000e-01
   endloop
 endfacet
 facet normal -1.000000e+00 -0.000000e+00 -0.000000e+00
   outer loop
     vertex -6.275000e+00  4.275000e+00  1.000000e-01
     vertex -6.275000e+00  4.275000e+00  0.000000e+00
     vertex -6.275000e+00  3.475000e+00  1.000000e-01
   endloop
 endfacet
 facet normal -1.000000e+00  0.000000e+00  0.000000e+00
   outer loop
     vertex -6.275000e+00  4.275000e+00  0.000000e+00
     vertex -6.275000e+00  3.475000e+00  0.000000e+00
     vertex -6.275000e+00  3.475000e+00  1.000000e-01
   endloop
 endfacet
 facet normal  1.000000e+00 -0.000000e+00  0.000000e+00
   outer loop
     vertex -4.925000e+00  3.475000e+00  1.000000e-01
     vertex -4.925000e+00  4.275000e+00  0.000000e+00
     vertex -4.925000e+00  4.275000e+00  1.000000e-01
   endloop
 endfacet
 facet normal  1.000000e+00 -0.000000e+00  0.000000e+00
   outer loop
     vertex -4.925000e+00  3.475000e+00  1.000000e-01
     vertex -4.925000e+00  3.475000e+00  0.000000e+00
     vertex -4.925000e+00  4.275000e+00  0.000000e+00
   endloop
 endfacet
 facet normal  0.000000e+00 -1.000000e+00  0.000000e+00
   outer loop
     vertex -6.275000e+00  3.475000e+00  0.000000e+00
     vertex -4.925000e+00  3.475000e+00  0.000000e+00
     vertex -4.925000e+00  3.475000e+00  1.000000e-01
   endloop
 endfacet
 facet normal  0.000000e+00 -1.000000e+00  0.000000e+00
   outer loop
     vertex -6.275000e+00  3.475000e+00  1.000000e-01
     vertex -6.275000e+00  3.475000e+00  0.000000e+00
     vertex -4.925000e+00  3.475000e+00  1.000000e-01
   endloop
 endfacet
 facet normal  0.000000e+00  1.000000e+00  0.000000e+00
   outer loop
     vertex -4.925000e+00  4.275000e+00  1.000000e-01
     vertex -4.925000e+00  4.275000e+00  0.000000e+00
     vertex -6.275000e+00  4.275000e+00  0.000000e+00
   endloop
 endfacet
 facet normal  0.000000e+00  1.000000e+00 -0.000000e+00
   outer loop
     vertex -4.925000e+00  4.275000e+00  1.000000e-01
     vertex -6.275000e+00  4.275000e+00  0.000000e+00
     vertex -6.275000e+00  4.275000e+00  1.000000e-01
   endloop
 endfacet
 facet normal  0.000000e+00  0.000000e+00 -1.000000e+00
   outer loop
     vertex -6.275000e+00  3.475000e+00  0.000000e+00
     vertex -6.275000e+00  4.275000e+00  0.000000e+00
     vertex -4.925000e+00  4.275000e+00  0.000000e+00
   endloop
 endfacet
 facet normal  0.000000e+00  0.000000e+00 -1.000000e+00
   outer loop
     vertex -4.925000e+00  3.475000e+00  0.000000e+00
     vertex -6.275000e+00  3.475000e+00  0.000000e+00
     vertex -4.925000e+00  4.275000e+00  0.000000e+00
   endloop
 endfacet
 facet normal  0.000000e+00  0.000000e+00  1.000000e+00
   outer loop
     vertex -4.925000e+00  4.275000e+00  1.000000e-01
     vertex -6.275000e+00  4.275000e+00  1.000000e-01
     vertex -6.275000e+00  3.475000e+00  1.000000e-01
   endloop
 endfacet
 facet normal -0.000000e+00  0.000000e+00  1.000000e+00
   outer loop
     vertex -4.925000e+00  4.275000e+00  1.000000e-01
     vertex -6.275000e+00  3.475000e+00  1.000000e-01
     vertex -4.925000e+00  3.475000e+00  1.000000e-01
   endloop
 endfacet
 facet normal -1.000000e+00 -0.000000e+00 -0.000000e+00
   outer loop
     vertex  5.250000e+00  6.125000e+00  1.000000e-01
     vertex  5.250000e+00  6.125000e+00  0.000000e+00
     vertex  5.250000e+00  4.775000e+00  1.000000e-01
   endloop
 endfacet
 facet normal -1.000000e+00  0.000000e+00  0.000000e+00
   outer loop
     vertex  5.250000e+00  6.125000e+00  0.000000e+00
     vertex  5.250000e+00  4.775000e+00  0.000000e+00
     vertex  5.250000e+00  4.775000e+00  1.000000e-01
   endloop
 endfacet
 facet normal  1.000000e+00 -0.000000e+00  0.000000e+00
   outer loop
     vertex  6.050000e+00  4.775000e+00  1.000000e-01
     vertex  6.050000e+00  6.125000e+00  0.000000e+00
     vertex  6.050000e+00  6.125000e+00  1.000000e-01
   endloop
 endfacet
 facet normal  1.000000e+00 -0.000000e+00  0.000000e+00
   outer loop
     vertex  6.050000e+00  4.775000e+00  1.000000e-01
     vertex  6.050000e+00  4.775000e+00  0.000000e+00
     vertex  6.050000e+00  6.125000e+00  0.000000e+00
   endloop
 endfacet
 facet normal  0.000000e+00 -1.000000e+00  0.000000e+00
   outer loop
     vertex  5.250000e+00  4.775000e+00  0.000000e+00
     vertex  6.050000e+00  4.775000e+00  0.000000e+00
     vertex  6.050000e+00  4.775000e+00  1.000000e-01
   endloop
 endfacet
 facet normal  0.000000e+00 -1.000000e+00  0.000000e+00
   outer loop
     vertex  5.250000e+00  4.775000e+00  1.000000e-01
     vertex  5.250000e+00  4.775000e+00  0.000000e+00
     vertex  6.050000e+00  4.775000e+00  1.000000e-01
   endloop
 endfacet
 facet normal  0.000000e+00  1.000000e+00  0.000000e+00
   outer loop
     vertex  6.050000e+00  6.125000e+00  1.000000e-01
     vertex  6.050000e+00  6.125000e+00  0.000000e+00
     vertex  5.250000e+00  6.125000e+00  0.000000e+00
   endloop
 endfacet
 facet normal  0.000000e+00  1.000000e+00 -0.000000e+00
   outer loop
     vertex  6.050000e+00  6.125000e+00  1.000000e-01
     vertex  5.250000e+00  6.125000e+00  0.000000e+00
     vertex  5.250000e+00  6.125000e+00  1.000000e-01
   endloop
 endfacet
 facet normal  0.000000e+00  0.000000e+00 -1.000000e+00
   outer loop
     vertex  5.250000e+00  4.775000e+00  0.000000e+00
     vertex  5.250000e+00  6.125000e+00  0.000000e+00
     vertex  6.050000e+00  6.125000e+00  0.000000e+00
   endloop
 endfacet
 facet normal  0.000000e+00  0.000000e+00 -1.000000e+00
   outer loop
     vertex  6.050000e+00  4.775000e+00  0.000000e+00
     vertex  5.250000e+00  4.775000e+00  0.000000e+00
     vertex  6.050000e+00  6.125000e+00  0.000000e+00
   endloop
 endfacet
 facet normal  0.000000e+00  0.000000e+00  1.000000e+00
   outer loop
     vertex  6.050000e+00  6.125000e+00  1.000000e-01
     vertex  5.250000e+00  6.125000e+00  1.000000e-01
     vertex  5.250000e+00  4.775000e+00  1.000000e-01
   endloop
 endfacet
 facet normal -0.000000e+00  0.000000e+00  1.000000e+00
   outer loop
     vertex  6.050000e+00  6.125000e+00  1.000000e-01
     vertex  5.250000e+00  4.775000e+00  1.000000e-01
     vertex  6.050000e+00  4.775000e+00  1.000000e-01
   endloop
 endfacet
endsolid
