solid
 facet normal -1.000000e+00 -0.000000e+00 -0.000000e+00
   outer loop
     vertex -5.080000e+00  5.745000e+00  9.150000e+00
     vertex -5.080000e+00  5.745000e+00  0.000000e+00
     vertex -5.080000e+00 -3.205000e+00  9.150000e+00
   endloop
 endfacet
 facet normal -1.000000e+00  0.000000e+00  0.000000e+00
   outer loop
     vertex -5.080000e+00  5.745000e+00  0.000000e+00
     vertex -5.080000e+00 -3.205000e+00  0.000000e+00
     vertex -5.080000e+00 -3.205000e+00  9.150000e+00
   endloop
 endfacet
 facet normal  1.000000e+00 -0.000000e+00  0.000000e+00
   outer loop
     vertex  1.016000e+01 -3.205000e+00  9.150000e+00
     vertex  1.016000e+01  5.745000e+00  0.000000e+00
     vertex  1.016000e+01  5.745000e+00  9.150000e+00
   endloop
 endfacet
 facet normal  1.000000e+00 -0.000000e+00  0.000000e+00
   outer loop
     vertex  1.016000e+01 -3.205000e+00  9.150000e+00
     vertex  1.016000e+01 -3.205000e+00  0.000000e+00
     vertex  1.016000e+01  5.745000e+00  0.000000e+00
   endloop
 endfacet
 facet normal  0.000000e+00 -1.000000e+00  0.000000e+00
   outer loop
     vertex -5.080000e+00 -3.205000e+00  9.150000e+00
     vertex -5.080000e+00 -3.205000e+00  0.000000e+00
     vertex  1.016000e+01 -3.205000e+00  0.000000e+00
   endloop
 endfacet
 facet normal  0.000000e+00 -1.000000e+00  0.000000e+00
   outer loop
     vertex -5.080000e+00 -3.205000e+00  9.150000e+00
     vertex  1.016000e+01 -3.205000e+00  0.000000e+00
     vertex  1.016000e+01 -3.205000e+00  9.150000e+00
   endloop
 endfacet
 facet normal  0.000000e+00  1.000000e+00 -0.000000e+00
   outer loop
     vertex  1.016000e+01  5.745000e+00  0.000000e+00
     vertex -5.080000e+00  5.745000e+00  0.000000e+00
     vertex -5.080000e+00  5.745000e+00  9.150000e+00
   endloop
 endfacet
 facet normal  0.000000e+00  1.000000e+00  0.000000e+00
   outer loop
     vertex  1.016000e+01  5.745000e+00  9.150000e+00
     vertex  1.016000e+01  5.745000e+00  0.000000e+00
     vertex -5.080000e+00  5.745000e+00  9.150000e+00
   endloop
 endfacet
 facet normal  0.000000e+00  0.000000e+00 -1.000000e+00
   outer loop
     vertex -5.080000e+00 -3.205000e+00  0.000000e+00
     vertex -5.080000e+00  5.745000e+00  0.000000e+00
     vertex  1.016000e+01  5.745000e+00  0.000000e+00
   endloop
 endfacet
 facet normal  0.000000e+00  0.000000e+00 -1.000000e+00
   outer loop
     vertex  1.016000e+01 -3.205000e+00  0.000000e+00
     vertex -5.080000e+00 -3.205000e+00  0.000000e+00
     vertex  1.016000e+01  5.745000e+00  0.000000e+00
   endloop
 endfacet
 facet normal  0.000000e+00  0.000000e+00  1.000000e+00
   outer loop
     vertex  1.016000e+01  5.745000e+00  9.150000e+00
     vertex -5.080000e+00  5.745000e+00  9.150000e+00
     vertex -5.080000e+00 -3.205000e+00  9.150000e+00
   endloop
 endfacet
 facet normal -0.000000e+00  0.000000e+00  1.000000e+00
   outer loop
     vertex  1.016000e+01  5.745000e+00  9.150000e+00
     vertex -5.080000e+00 -3.205000e+00  9.150000e+00
     vertex  1.016000e+01 -3.205000e+00  9.150000e+00
   endloop
 endfacet
 facet normal -1.000000e+00 -8.673617e-17  3.950463e-33
   outer loop
     vertex -3.200000e-01  3.200000e-01 -3.294000e+00
     vertex -3.200000e-01 -3.200000e-01 -3.294000e+00
     vertex -3.200000e-01 -3.200000e-01  8.894000e+00
   endloop
 endfacet
 facet normal -1.000000e+00  7.806256e-16  4.554574e-17
   outer loop
     vertex -3.200000e-01  3.200000e-01  8.894000e+00
     vertex -3.200000e-01  3.200000e-01 -3.294000e+00
     vertex -3.200000e-01 -3.200000e-01  8.894000e+00
   endloop
 endfacet
 facet normal  0.000000e+00 -1.000000e+00  4.554574e-17
   outer loop
     vertex -3.200000e-01 -3.200000e-01 -3.294000e+00
     vertex  3.200000e-01 -3.200000e-01 -3.294000e+00
     vertex  3.200000e-01 -3.200000e-01  8.894000e+00
   endloop
 endfacet
 facet normal  0.000000e+00 -1.000000e+00  4.554574e-17
   outer loop
     vertex -3.200000e-01 -3.200000e-01  8.894000e+00
     vertex -3.200000e-01 -3.200000e-01 -3.294000e+00
     vertex  3.200000e-01 -3.200000e-01  8.894000e+00
   endloop
 endfacet
 facet normal -7.071068e-01 -0.000000e+00 -7.071068e-01
   outer loop
     vertex -6.400000e-02  6.400000e-02 -3.550000e+00
     vertex -6.400000e-02 -6.400000e-02 -3.550000e+00
     vertex -3.200000e-01 -3.200000e-01 -3.294000e+00
   endloop
 endfacet
 facet normal -7.071068e-01 -6.133174e-17 -7.071068e-01
   outer loop
     vertex -6.400000e-02  6.400000e-02 -3.550000e+00
     vertex -3.200000e-01 -3.200000e-01 -3.294000e+00
     vertex -3.200000e-01  3.200000e-01 -3.294000e+00
   endloop
 endfacet
 facet normal -7.071068e-01  5.390485e-16  7.071068e-01
   outer loop
     vertex -3.200000e-01 -3.200000e-01  8.894000e+00
     vertex -6.400000e-02 -6.400000e-02  9.150000e+00
     vertex -3.200000e-01  3.200000e-01  8.894000e+00
   endloop
 endfacet
 facet normal -7.071068e-01  0.000000e+00  7.071068e-01
   outer loop
     vertex -3.200000e-01  3.200000e-01  8.894000e+00
     vertex -6.400000e-02 -6.400000e-02  9.150000e+00
     vertex -6.400000e-02  6.400000e-02  9.150000e+00
   endloop
 endfacet
 facet normal  0.000000e+00  1.000000e+00  4.554574e-17
   outer loop
     vertex  3.200000e-01  3.200000e-01  8.894000e+00
     vertex  3.200000e-01  3.200000e-01 -3.294000e+00
     vertex -3.200000e-01  3.200000e-01 -3.294000e+00
   endloop
 endfacet
 facet normal  8.673617e-16  1.000000e+00 -3.950463e-32
   outer loop
     vertex  3.200000e-01  3.200000e-01  8.894000e+00
     vertex -3.200000e-01  3.200000e-01 -3.294000e+00
     vertex -3.200000e-01  3.200000e-01  8.894000e+00
   endloop
 endfacet
 facet normal  1.000000e+00 -0.000000e+00  0.000000e+00
   outer loop
     vertex  3.200000e-01 -3.200000e-01  8.894000e+00
     vertex  3.200000e-01 -3.200000e-01 -3.294000e+00
     vertex  3.200000e-01  3.200000e-01 -3.294000e+00
   endloop
 endfacet
 facet normal  1.000000e+00 -0.000000e+00 -0.000000e+00
   outer loop
     vertex  3.200000e-01 -3.200000e-01  8.894000e+00
     vertex  3.200000e-01  3.200000e-01 -3.294000e+00
     vertex  3.200000e-01  3.200000e-01  8.894000e+00
   endloop
 endfacet
 facet normal  0.000000e+00 -7.071068e-01 -7.071068e-01
   outer loop
     vertex -3.200000e-01 -3.200000e-01 -3.294000e+00
     vertex -6.400000e-02 -6.400000e-02 -3.550000e+00
     vertex  6.400000e-02 -6.400000e-02 -3.550000e+00
   endloop
 endfacet
 facet normal -0.000000e+00 -7.071068e-01 -7.071068e-01
   outer loop
     vertex  3.200000e-01 -3.200000e-01 -3.294000e+00
     vertex -3.200000e-01 -3.200000e-01 -3.294000e+00
     vertex  6.400000e-02 -6.400000e-02 -3.550000e+00
   endloop
 endfacet
 facet normal  0.000000e+00 -7.071068e-01  7.071068e-01
   outer loop
     vertex  3.200000e-01 -3.200000e-01  8.894000e+00
     vertex -6.400000e-02 -6.400000e-02  9.150000e+00
     vertex -3.200000e-01 -3.200000e-01  8.894000e+00
   endloop
 endfacet
 facet normal  0.000000e+00 -7.071068e-01  7.071068e-01
   outer loop
     vertex  6.400000e-02 -6.400000e-02  9.150000e+00
     vertex -6.400000e-02 -6.400000e-02  9.150000e+00
     vertex  3.200000e-01 -3.200000e-01  8.894000e+00
   endloop
 endfacet
 facet normal  0.000000e+00  0.000000e+00 -1.000000e+00
   outer loop
     vertex  6.400000e-02 -6.400000e-02 -3.550000e+00
     vertex -6.400000e-02 -6.400000e-02 -3.550000e+00
     vertex  6.400000e-02  6.400000e-02 -3.550000e+00
   endloop
 endfacet
 facet normal  0.000000e+00  0.000000e+00 -1.000000e+00
   outer loop
     vertex -6.400000e-02 -6.400000e-02 -3.550000e+00
     vertex -6.400000e-02  6.400000e-02 -3.550000e+00
     vertex  6.400000e-02  6.400000e-02 -3.550000e+00
   endloop
 endfacet
 facet normal  0.000000e+00  7.071068e-01 -7.071068e-01
   outer loop
     vertex  6.400000e-02  6.400000e-02 -3.550000e+00
     vertex -6.400000e-02  6.400000e-02 -3.550000e+00
     vertex -3.200000e-01  3.200000e-01 -3.294000e+00
   endloop
 endfacet
 facet normal  0.000000e+00  7.071068e-01 -7.071068e-01
   outer loop
     vertex  6.400000e-02  6.400000e-02 -3.550000e+00
     vertex -3.200000e-01  3.200000e-01 -3.294000e+00
     vertex  3.200000e-01  3.200000e-01 -3.294000e+00
   endloop
 endfacet
 facet normal  0.000000e+00  0.000000e+00  1.000000e+00
   outer loop
     vertex  6.400000e-02 -6.400000e-02  9.150000e+00
     vertex -6.400000e-02  6.400000e-02  9.150000e+00
     vertex -6.400000e-02 -6.400000e-02  9.150000e+00
   endloop
 endfacet
 facet normal -2.775558e-14 -2.775558e-14  1.000000e+00
   outer loop
     vertex  6.400000e-02  6.400000e-02  9.150000e+00
     vertex -6.400000e-02  6.400000e-02  9.150000e+00
     vertex  6.400000e-02 -6.400000e-02  9.150000e+00
   endloop
 endfacet
 facet normal  5.989427e-16  7.071068e-01  7.071068e-01
   outer loop
     vertex -3.200000e-01  3.200000e-01  8.894000e+00
     vertex -6.400000e-02  6.400000e-02  9.150000e+00
     vertex  3.200000e-01  3.200000e-01  8.894000e+00
   endloop
 endfacet
 facet normal -1.962616e-14  7.071068e-01  7.071068e-01
   outer loop
     vertex  3.200000e-01  3.200000e-01  8.894000e+00
     vertex -6.400000e-02  6.400000e-02  9.150000e+00
     vertex  6.400000e-02  6.400000e-02  9.150000e+00
   endloop
 endfacet
 facet normal  7.071068e-01  0.000000e+00 -7.071068e-01
   outer loop
     vertex  3.200000e-01 -3.200000e-01 -3.294000e+00
     vertex  6.400000e-02 -6.400000e-02 -3.550000e+00
     vertex  6.400000e-02  6.400000e-02 -3.550000e+00
   endloop
 endfacet
 facet normal  7.071068e-01  0.000000e+00 -7.071068e-01
   outer loop
     vertex  3.200000e-01  3.200000e-01 -3.294000e+00
     vertex  3.200000e-01 -3.200000e-01 -3.294000e+00
     vertex  6.400000e-02  6.400000e-02 -3.550000e+00
   endloop
 endfacet
 facet normal  7.071068e-01  0.000000e+00  7.071068e-01
   outer loop
     vertex  3.200000e-01  3.200000e-01  8.894000e+00
     vertex  6.400000e-02 -6.400000e-02  9.150000e+00
     vertex  3.200000e-01 -3.200000e-01  8.894000e+00
   endloop
 endfacet
 facet normal  7.071068e-01 -1.962616e-14  7.071068e-01
   outer loop
     vertex  6.400000e-02  6.400000e-02  9.150000e+00
     vertex  6.400000e-02 -6.400000e-02  9.150000e+00
     vertex  3.200000e-01  3.200000e-01  8.894000e+00
   endloop
 endfacet
 facet normal -1.000000e+00 -8.673617e-17  6.320742e-33
   outer loop
     vertex -3.200000e-01  2.860000e+00 -3.294000e+00
     vertex -3.200000e-01  2.220000e+00 -3.294000e+00
     vertex -3.200000e-01  2.220000e+00  8.894000e+00
   endloop
 endfacet
 facet normal -1.000000e+00  7.806256e-16  4.554574e-17
   outer loop
     vertex -3.200000e-01  2.860000e+00  8.894000e+00
     vertex -3.200000e-01  2.860000e+00 -3.294000e+00
     vertex -3.200000e-01  2.220000e+00  8.894000e+00
   endloop
 endfacet
 facet normal  0.000000e+00 -1.000000e+00  7.287319e-17
   outer loop
     vertex -3.200000e-01  2.220000e+00 -3.294000e+00
     vertex  3.200000e-01  2.220000e+00 -3.294000e+00
     vertex  3.200000e-01  2.220000e+00  8.894000e+00
   endloop
 endfacet
 facet normal  0.000000e+00 -1.000000e+00  7.287319e-17
   outer loop
     vertex -3.200000e-01  2.220000e+00  8.894000e+00
     vertex -3.200000e-01  2.220000e+00 -3.294000e+00
     vertex  3.200000e-01  2.220000e+00  8.894000e+00
   endloop
 endfacet
 facet normal -7.071068e-01 -0.000000e+00 -7.071068e-01
   outer loop
     vertex -6.400000e-02  2.604000e+00 -3.550000e+00
     vertex -6.400000e-02  2.476000e+00 -3.550000e+00
     vertex -3.200000e-01  2.220000e+00 -3.294000e+00
   endloop
 endfacet
 facet normal -7.071068e-01 -6.133174e-17 -7.071068e-01
   outer loop
     vertex -6.400000e-02  2.604000e+00 -3.550000e+00
     vertex -3.200000e-01  2.220000e+00 -3.294000e+00
     vertex -3.200000e-01  2.860000e+00 -3.294000e+00
   endloop
 endfacet
 facet normal -7.071068e-01  5.390485e-16  7.071068e-01
   outer loop
     vertex -3.200000e-01  2.220000e+00  8.894000e+00
     vertex -6.400000e-02  2.476000e+00  9.150000e+00
     vertex -3.200000e-01  2.860000e+00  8.894000e+00
   endloop
 endfacet
 facet normal -7.071068e-01  0.000000e+00  7.071068e-01
   outer loop
     vertex -3.200000e-01  2.860000e+00  8.894000e+00
     vertex -6.400000e-02  2.476000e+00  9.150000e+00
     vertex -6.400000e-02  2.604000e+00  9.150000e+00
   endloop
 endfacet
 facet normal  0.000000e+00  1.000000e+00  3.643659e-17
   outer loop
     vertex  3.200000e-01  2.860000e+00  8.894000e+00
     vertex  3.200000e-01  2.860000e+00 -3.294000e+00
     vertex -3.200000e-01  2.860000e+00 -3.294000e+00
   endloop
 endfacet
 facet normal  6.938894e-16  1.000000e+00 -3.160371e-32
   outer loop
     vertex  3.200000e-01  2.860000e+00  8.894000e+00
     vertex -3.200000e-01  2.860000e+00 -3.294000e+00
     vertex -3.200000e-01  2.860000e+00  8.894000e+00
   endloop
 endfacet
 facet normal  1.000000e+00 -0.000000e+00  0.000000e+00
   outer loop
     vertex  3.200000e-01  2.220000e+00  8.894000e+00
     vertex  3.200000e-01  2.220000e+00 -3.294000e+00
     vertex  3.200000e-01  2.860000e+00 -3.294000e+00
   endloop
 endfacet
 facet normal  1.000000e+00 -0.000000e+00 -0.000000e+00
   outer loop
     vertex  3.200000e-01  2.220000e+00  8.894000e+00
     vertex  3.200000e-01  2.860000e+00 -3.294000e+00
     vertex  3.200000e-01  2.860000e+00  8.894000e+00
   endloop
 endfacet
 facet normal  0.000000e+00 -7.071068e-01 -7.071068e-01
   outer loop
     vertex -3.200000e-01  2.220000e+00 -3.294000e+00
     vertex -6.400000e-02  2.476000e+00 -3.550000e+00
     vertex  6.400000e-02  2.476000e+00 -3.550000e+00
   endloop
 endfacet
 facet normal -0.000000e+00 -7.071068e-01 -7.071068e-01
   outer loop
     vertex  3.200000e-01  2.220000e+00 -3.294000e+00
     vertex -3.200000e-01  2.220000e+00 -3.294000e+00
     vertex  6.400000e-02  2.476000e+00 -3.550000e+00
   endloop
 endfacet
 facet normal  0.000000e+00 -7.071068e-01  7.071068e-01
   outer loop
     vertex  3.200000e-01  2.220000e+00  8.894000e+00
     vertex -6.400000e-02  2.476000e+00  9.150000e+00
     vertex -3.200000e-01  2.220000e+00  8.894000e+00
   endloop
 endfacet
 facet normal  0.000000e+00 -7.071068e-01  7.071068e-01
   outer loop
     vertex  6.400000e-02  2.476000e+00  9.150000e+00
     vertex -6.400000e-02  2.476000e+00  9.150000e+00
     vertex  3.200000e-01  2.220000e+00  8.894000e+00
   endloop
 endfacet
 facet normal  0.000000e+00  0.000000e+00 -1.000000e+00
   outer loop
     vertex  6.400000e-02  2.476000e+00 -3.550000e+00
     vertex -6.400000e-02  2.476000e+00 -3.550000e+00
     vertex  6.400000e-02  2.604000e+00 -3.550000e+00
   endloop
 endfacet
 facet normal  0.000000e+00  0.000000e+00 -1.000000e+00
   outer loop
     vertex -6.400000e-02  2.476000e+00 -3.550000e+00
     vertex -6.400000e-02  2.604000e+00 -3.550000e+00
     vertex  6.400000e-02  2.604000e+00 -3.550000e+00
   endloop
 endfacet
 facet normal  0.000000e+00  7.071068e-01 -7.071068e-01
   outer loop
     vertex  6.400000e-02  2.604000e+00 -3.550000e+00
     vertex -6.400000e-02  2.604000e+00 -3.550000e+00
     vertex -3.200000e-01  2.860000e+00 -3.294000e+00
   endloop
 endfacet
 facet normal  0.000000e+00  7.071068e-01 -7.071068e-01
   outer loop
     vertex  6.400000e-02  2.604000e+00 -3.550000e+00
     vertex -3.200000e-01  2.860000e+00 -3.294000e+00
     vertex  3.200000e-01  2.860000e+00 -3.294000e+00
   endloop
 endfacet
 facet normal -0.000000e+00  0.000000e+00  1.000000e+00
   outer loop
     vertex -6.400000e-02  2.604000e+00  9.150000e+00
     vertex -6.400000e-02  2.476000e+00  9.150000e+00
     vertex  6.400000e-02  2.476000e+00  9.150000e+00
   endloop
 endfacet
 facet normal -2.775558e-14 -2.775558e-14  1.000000e+00
   outer loop
     vertex  6.400000e-02  2.604000e+00  9.150000e+00
     vertex -6.400000e-02  2.604000e+00  9.150000e+00
     vertex  6.400000e-02  2.476000e+00  9.150000e+00
   endloop
 endfacet
 facet normal  4.791542e-16  7.071068e-01  7.071068e-01
   outer loop
     vertex -3.200000e-01  2.860000e+00  8.894000e+00
     vertex -6.400000e-02  2.604000e+00  9.150000e+00
     vertex  3.200000e-01  2.860000e+00  8.894000e+00
   endloop
 endfacet
 facet normal -1.962616e-14  7.071068e-01  7.071068e-01
   outer loop
     vertex  3.200000e-01  2.860000e+00  8.894000e+00
     vertex -6.400000e-02  2.604000e+00  9.150000e+00
     vertex  6.400000e-02  2.604000e+00  9.150000e+00
   endloop
 endfacet
 facet normal  7.071068e-01  0.000000e+00 -7.071068e-01
   outer loop
     vertex  3.200000e-01  2.220000e+00 -3.294000e+00
     vertex  6.400000e-02  2.476000e+00 -3.550000e+00
     vertex  6.400000e-02  2.604000e+00 -3.550000e+00
   endloop
 endfacet
 facet normal  7.071068e-01  0.000000e+00 -7.071068e-01
   outer loop
     vertex  3.200000e-01  2.860000e+00 -3.294000e+00
     vertex  3.200000e-01  2.220000e+00 -3.294000e+00
     vertex  6.400000e-02  2.604000e+00 -3.550000e+00
   endloop
 endfacet
 facet normal  7.071068e-01  0.000000e+00  7.071068e-01
   outer loop
     vertex  3.200000e-01  2.860000e+00  8.894000e+00
     vertex  6.400000e-02  2.476000e+00  9.150000e+00
     vertex  3.200000e-01  2.220000e+00  8.894000e+00
   endloop
 endfacet
 facet normal  7.071068e-01 -1.962616e-14  7.071068e-01
   outer loop
     vertex  6.400000e-02  2.604000e+00  9.150000e+00
     vertex  6.400000e-02  2.476000e+00  9.150000e+00
     vertex  3.200000e-01  2.860000e+00  8.894000e+00
   endloop
 endfacet
 facet normal -1.000000e+00 -6.938894e-16  3.160371e-32
   outer loop
     vertex  2.220000e+00  3.200000e-01 -3.294000e+00
     vertex  2.220000e+00 -3.200000e-01 -3.294000e+00
     vertex  2.220000e+00 -3.200000e-01  8.894000e+00
   endloop
 endfacet
 facet normal -1.000000e+00  6.938894e-16  7.287319e-17
   outer loop
     vertex  2.220000e+00  3.200000e-01  8.894000e+00
     vertex  2.220000e+00  3.200000e-01 -3.294000e+00
     vertex  2.220000e+00 -3.200000e-01  8.894000e+00
   endloop
 endfacet
 facet normal  0.000000e+00 -1.000000e+00  4.554574e-17
   outer loop
     vertex  2.220000e+00 -3.200000e-01 -3.294000e+00
     vertex  2.860000e+00 -3.200000e-01 -3.294000e+00
     vertex  2.860000e+00 -3.200000e-01  8.894000e+00
   endloop
 endfacet
 facet normal  0.000000e+00 -1.000000e+00  4.554574e-17
   outer loop
     vertex  2.220000e+00 -3.200000e-01  8.894000e+00
     vertex  2.220000e+00 -3.200000e-01 -3.294000e+00
     vertex  2.860000e+00 -3.200000e-01  8.894000e+00
   endloop
 endfacet
 facet normal -7.071068e-01 -0.000000e+00 -7.071068e-01
   outer loop
     vertex  2.476000e+00  6.400000e-02 -3.550000e+00
     vertex  2.476000e+00 -6.400000e-02 -3.550000e+00
     vertex  2.220000e+00 -3.200000e-01 -3.294000e+00
   endloop
 endfacet
 facet normal -7.071068e-01 -4.906539e-16 -7.071068e-01
   outer loop
     vertex  2.476000e+00  6.400000e-02 -3.550000e+00
     vertex  2.220000e+00 -3.200000e-01 -3.294000e+00
     vertex  2.220000e+00  3.200000e-01 -3.294000e+00
   endloop
 endfacet
 facet normal -7.071068e-01  4.791542e-16  7.071068e-01
   outer loop
     vertex  2.220000e+00 -3.200000e-01  8.894000e+00
     vertex  2.476000e+00 -6.400000e-02  9.150000e+00
     vertex  2.220000e+00  3.200000e-01  8.894000e+00
   endloop
 endfacet
 facet normal -7.071068e-01  0.000000e+00  7.071068e-01
   outer loop
     vertex  2.220000e+00  3.200000e-01  8.894000e+00
     vertex  2.476000e+00 -6.400000e-02  9.150000e+00
     vertex  2.476000e+00  6.400000e-02  9.150000e+00
   endloop
 endfacet
 facet normal  0.000000e+00  1.000000e+00  4.554574e-17
   outer loop
     vertex  2.860000e+00  3.200000e-01  8.894000e+00
     vertex  2.860000e+00  3.200000e-01 -3.294000e+00
     vertex  2.220000e+00  3.200000e-01 -3.294000e+00
   endloop
 endfacet
 facet normal  8.673617e-16  1.000000e+00 -6.320742e-32
   outer loop
     vertex  2.860000e+00  3.200000e-01  8.894000e+00
     vertex  2.220000e+00  3.200000e-01 -3.294000e+00
     vertex  2.220000e+00  3.200000e-01  8.894000e+00
   endloop
 endfacet
 facet normal  1.000000e+00 -0.000000e+00  0.000000e+00
   outer loop
     vertex  2.860000e+00 -3.200000e-01  8.894000e+00
     vertex  2.860000e+00 -3.200000e-01 -3.294000e+00
     vertex  2.860000e+00  3.200000e-01 -3.294000e+00
   endloop
 endfacet
 facet normal  1.000000e+00 -0.000000e+00 -0.000000e+00
   outer loop
     vertex  2.860000e+00 -3.200000e-01  8.894000e+00
     vertex  2.860000e+00  3.200000e-01 -3.294000e+00
     vertex  2.860000e+00  3.200000e-01  8.894000e+00
   endloop
 endfacet
 facet normal  0.000000e+00 -7.071068e-01 -7.071068e-01
   outer loop
     vertex  2.220000e+00 -3.200000e-01 -3.294000e+00
     vertex  2.476000e+00 -6.400000e-02 -3.550000e+00
     vertex  2.604000e+00 -6.400000e-02 -3.550000e+00
   endloop
 endfacet
 facet normal -0.000000e+00 -7.071068e-01 -7.071068e-01
   outer loop
     vertex  2.860000e+00 -3.200000e-01 -3.294000e+00
     vertex  2.220000e+00 -3.200000e-01 -3.294000e+00
     vertex  2.604000e+00 -6.400000e-02 -3.550000e+00
   endloop
 endfacet
 facet normal  0.000000e+00 -7.071068e-01  7.071068e-01
   outer loop
     vertex  2.860000e+00 -3.200000e-01  8.894000e+00
     vertex  2.476000e+00 -6.400000e-02  9.150000e+00
     vertex  2.220000e+00 -3.200000e-01  8.894000e+00
   endloop
 endfacet
 facet normal  0.000000e+00 -7.071068e-01  7.071068e-01
   outer loop
     vertex  2.604000e+00 -6.400000e-02  9.150000e+00
     vertex  2.476000e+00 -6.400000e-02  9.150000e+00
     vertex  2.860000e+00 -3.200000e-01  8.894000e+00
   endloop
 endfacet
 facet normal  0.000000e+00  0.000000e+00 -1.000000e+00
   outer loop
     vertex  2.604000e+00 -6.400000e-02 -3.550000e+00
     vertex  2.476000e+00 -6.400000e-02 -3.550000e+00
     vertex  2.604000e+00  6.400000e-02 -3.550000e+00
   endloop
 endfacet
 facet normal  0.000000e+00  0.000000e+00 -1.000000e+00
   outer loop
     vertex  2.476000e+00 -6.400000e-02 -3.550000e+00
     vertex  2.476000e+00  6.400000e-02 -3.550000e+00
     vertex  2.604000e+00  6.400000e-02 -3.550000e+00
   endloop
 endfacet
 facet normal  0.000000e+00  7.071068e-01 -7.071068e-01
   outer loop
     vertex  2.604000e+00  6.400000e-02 -3.550000e+00
     vertex  2.476000e+00  6.400000e-02 -3.550000e+00
     vertex  2.220000e+00  3.200000e-01 -3.294000e+00
   endloop
 endfacet
 facet normal  0.000000e+00  7.071068e-01 -7.071068e-01
   outer loop
     vertex  2.604000e+00  6.400000e-02 -3.550000e+00
     vertex  2.220000e+00  3.200000e-01 -3.294000e+00
     vertex  2.860000e+00  3.200000e-01 -3.294000e+00
   endloop
 endfacet
 facet normal  0.000000e+00  0.000000e+00  1.000000e+00
   outer loop
     vertex  2.604000e+00 -6.400000e-02  9.150000e+00
     vertex  2.476000e+00  6.400000e-02  9.150000e+00
     vertex  2.476000e+00 -6.400000e-02  9.150000e+00
   endloop
 endfacet
 facet normal -2.775558e-14 -2.775558e-14  1.000000e+00
   outer loop
     vertex  2.604000e+00  6.400000e-02  9.150000e+00
     vertex  2.476000e+00  6.400000e-02  9.150000e+00
     vertex  2.604000e+00 -6.400000e-02  9.150000e+00
   endloop
 endfacet
 facet normal  5.989427e-16  7.071068e-01  7.071068e-01
   outer loop
     vertex  2.220000e+00  3.200000e-01  8.894000e+00
     vertex  2.476000e+00  6.400000e-02  9.150000e+00
     vertex  2.860000e+00  3.200000e-01  8.894000e+00
   endloop
 endfacet
 facet normal -1.962616e-14  7.071068e-01  7.071068e-01
   outer loop
     vertex  2.860000e+00  3.200000e-01  8.894000e+00
     vertex  2.476000e+00  6.400000e-02  9.150000e+00
     vertex  2.604000e+00  6.400000e-02  9.150000e+00
   endloop
 endfacet
 facet normal  7.071068e-01  0.000000e+00 -7.071068e-01
   outer loop
     vertex  2.860000e+00 -3.200000e-01 -3.294000e+00
     vertex  2.604000e+00 -6.400000e-02 -3.550000e+00
     vertex  2.604000e+00  6.400000e-02 -3.550000e+00
   endloop
 endfacet
 facet normal  7.071068e-01  0.000000e+00 -7.071068e-01
   outer loop
     vertex  2.860000e+00  3.200000e-01 -3.294000e+00
     vertex  2.860000e+00 -3.200000e-01 -3.294000e+00
     vertex  2.604000e+00  6.400000e-02 -3.550000e+00
   endloop
 endfacet
 facet normal  7.071068e-01  0.000000e+00  7.071068e-01
   outer loop
     vertex  2.860000e+00  3.200000e-01  8.894000e+00
     vertex  2.604000e+00 -6.400000e-02  9.150000e+00
     vertex  2.860000e+00 -3.200000e-01  8.894000e+00
   endloop
 endfacet
 facet normal  7.071068e-01 -1.962616e-14  7.071068e-01
   outer loop
     vertex  2.604000e+00  6.400000e-02  9.150000e+00
     vertex  2.604000e+00 -6.400000e-02  9.150000e+00
     vertex  2.860000e+00  3.200000e-01  8.894000e+00
   endloop
 endfacet
 facet normal -1.000000e+00 -6.938894e-16  5.056593e-32
   outer loop
     vertex  2.220000e+00  2.860000e+00 -3.294000e+00
     vertex  2.220000e+00  2.220000e+00 -3.294000e+00
     vertex  2.220000e+00  2.220000e+00  8.894000e+00
   endloop
 endfacet
 facet normal -1.000000e+00  6.938894e-16  7.287319e-17
   outer loop
     vertex  2.220000e+00  2.860000e+00  8.894000e+00
     vertex  2.220000e+00  2.860000e+00 -3.294000e+00
     vertex  2.220000e+00  2.220000e+00  8.894000e+00
   endloop
 endfacet
 facet normal  0.000000e+00 -1.000000e+00  7.287319e-17
   outer loop
     vertex  2.220000e+00  2.220000e+00 -3.294000e+00
     vertex  2.860000e+00  2.220000e+00 -3.294000e+00
     vertex  2.860000e+00  2.220000e+00  8.894000e+00
   endloop
 endfacet
 facet normal  0.000000e+00 -1.000000e+00  7.287319e-17
   outer loop
     vertex  2.220000e+00  2.220000e+00  8.894000e+00
     vertex  2.220000e+00  2.220000e+00 -3.294000e+00
     vertex  2.860000e+00  2.220000e+00  8.894000e+00
   endloop
 endfacet
 facet normal -7.071068e-01 -0.000000e+00 -7.071068e-01
   outer loop
     vertex  2.476000e+00  2.604000e+00 -3.550000e+00
     vertex  2.476000e+00  2.476000e+00 -3.550000e+00
     vertex  2.220000e+00  2.220000e+00 -3.294000e+00
   endloop
 endfacet
 facet normal -7.071068e-01 -4.906539e-16 -7.071068e-01
   outer loop
     vertex  2.476000e+00  2.604000e+00 -3.550000e+00
     vertex  2.220000e+00  2.220000e+00 -3.294000e+00
     vertex  2.220000e+00  2.860000e+00 -3.294000e+00
   endloop
 endfacet
 facet normal -7.071068e-01  4.791542e-16  7.071068e-01
   outer loop
     vertex  2.220000e+00  2.220000e+00  8.894000e+00
     vertex  2.476000e+00  2.476000e+00  9.150000e+00
     vertex  2.220000e+00  2.860000e+00  8.894000e+00
   endloop
 endfacet
 facet normal -7.071068e-01  0.000000e+00  7.071068e-01
   outer loop
     vertex  2.220000e+00  2.860000e+00  8.894000e+00
     vertex  2.476000e+00  2.476000e+00  9.150000e+00
     vertex  2.476000e+00  2.604000e+00  9.150000e+00
   endloop
 endfacet
 facet normal  0.000000e+00  1.000000e+00  3.643659e-17
   outer loop
     vertex  2.860000e+00  2.860000e+00  8.894000e+00
     vertex  2.860000e+00  2.860000e+00 -3.294000e+00
     vertex  2.220000e+00  2.860000e+00 -3.294000e+00
   endloop
 endfacet
 facet normal  6.938894e-16  1.000000e+00 -5.056593e-32
   outer loop
     vertex  2.860000e+00  2.860000e+00  8.894000e+00
     vertex  2.220000e+00  2.860000e+00 -3.294000e+00
     vertex  2.220000e+00  2.860000e+00  8.894000e+00
   endloop
 endfacet
 facet normal  1.000000e+00 -0.000000e+00  0.000000e+00
   outer loop
     vertex  2.860000e+00  2.220000e+00  8.894000e+00
     vertex  2.860000e+00  2.220000e+00 -3.294000e+00
     vertex  2.860000e+00  2.860000e+00 -3.294000e+00
   endloop
 endfacet
 facet normal  1.000000e+00 -0.000000e+00 -0.000000e+00
   outer loop
     vertex  2.860000e+00  2.220000e+00  8.894000e+00
     vertex  2.860000e+00  2.860000e+00 -3.294000e+00
     vertex  2.860000e+00  2.860000e+00  8.894000e+00
   endloop
 endfacet
 facet normal  0.000000e+00 -7.071068e-01 -7.071068e-01
   outer loop
     vertex  2.220000e+00  2.220000e+00 -3.294000e+00
     vertex  2.476000e+00  2.476000e+00 -3.550000e+00
     vertex  2.604000e+00  2.476000e+00 -3.550000e+00
   endloop
 endfacet
 facet normal -0.000000e+00 -7.071068e-01 -7.071068e-01
   outer loop
     vertex  2.860000e+00  2.220000e+00 -3.294000e+00
     vertex  2.220000e+00  2.220000e+00 -3.294000e+00
     vertex  2.604000e+00  2.476000e+00 -3.550000e+00
   endloop
 endfacet
 facet normal  0.000000e+00 -7.071068e-01  7.071068e-01
   outer loop
     vertex  2.860000e+00  2.220000e+00  8.894000e+00
     vertex  2.476000e+00  2.476000e+00  9.150000e+00
     vertex  2.220000e+00  2.220000e+00  8.894000e+00
   endloop
 endfacet
 facet normal  0.000000e+00 -7.071068e-01  7.071068e-01
   outer loop
     vertex  2.604000e+00  2.476000e+00  9.150000e+00
     vertex  2.476000e+00  2.476000e+00  9.150000e+00
     vertex  2.860000e+00  2.220000e+00  8.894000e+00
   endloop
 endfacet
 facet normal  0.000000e+00  0.000000e+00 -1.000000e+00
   outer loop
     vertex  2.604000e+00  2.476000e+00 -3.550000e+00
     vertex  2.476000e+00  2.476000e+00 -3.550000e+00
     vertex  2.604000e+00  2.604000e+00 -3.550000e+00
   endloop
 endfacet
 facet normal  0.000000e+00  0.000000e+00 -1.000000e+00
   outer loop
     vertex  2.476000e+00  2.476000e+00 -3.550000e+00
     vertex  2.476000e+00  2.604000e+00 -3.550000e+00
     vertex  2.604000e+00  2.604000e+00 -3.550000e+00
   endloop
 endfacet
 facet normal  0.000000e+00  7.071068e-01 -7.071068e-01
   outer loop
     vertex  2.604000e+00  2.604000e+00 -3.550000e+00
     vertex  2.476000e+00  2.604000e+00 -3.550000e+00
     vertex  2.220000e+00  2.860000e+00 -3.294000e+00
   endloop
 endfacet
 facet normal  0.000000e+00  7.071068e-01 -7.071068e-01
   outer loop
     vertex  2.604000e+00  2.604000e+00 -3.550000e+00
     vertex  2.220000e+00  2.860000e+00 -3.294000e+00
     vertex  2.860000e+00  2.860000e+00 -3.294000e+00
   endloop
 endfacet
 facet normal  0.000000e+00  0.000000e+00  1.000000e+00
   outer loop
     vertex  2.604000e+00  2.476000e+00  9.150000e+00
     vertex  2.476000e+00  2.604000e+00  9.150000e+00
     vertex  2.476000e+00  2.476000e+00  9.150000e+00
   endloop
 endfacet
 facet normal -2.775558e-14 -2.775558e-14  1.000000e+00
   outer loop
     vertex  2.604000e+00  2.604000e+00  9.150000e+00
     vertex  2.476000e+00  2.604000e+00  9.150000e+00
     vertex  2.604000e+00  2.476000e+00  9.150000e+00
   endloop
 endfacet
 facet normal  4.791542e-16  7.071068e-01  7.071068e-01
   outer loop
     vertex  2.220000e+00  2.860000e+00  8.894000e+00
     vertex  2.476000e+00  2.604000e+00  9.150000e+00
     vertex  2.860000e+00  2.860000e+00  8.894000e+00
   endloop
 endfacet
 facet normal -1.962616e-14  7.071068e-01  7.071068e-01
   outer loop
     vertex  2.860000e+00  2.860000e+00  8.894000e+00
     vertex  2.476000e+00  2.604000e+00  9.150000e+00
     vertex  2.604000e+00  2.604000e+00  9.150000e+00
   endloop
 endfacet
 facet normal  7.071068e-01  0.000000e+00 -7.071068e-01
   outer loop
     vertex  2.860000e+00  2.220000e+00 -3.294000e+00
     vertex  2.604000e+00  2.476000e+00 -3.550000e+00
     vertex  2.604000e+00  2.604000e+00 -3.550000e+00
   endloop
 endfacet
 facet normal  7.071068e-01  0.000000e+00 -7.071068e-01
   outer loop
     vertex  2.860000e+00  2.860000e+00 -3.294000e+00
     vertex  2.860000e+00  2.220000e+00 -3.294000e+00
     vertex  2.604000e+00  2.604000e+00 -3.550000e+00
   endloop
 endfacet
 facet normal  7.071068e-01  0.000000e+00  7.071068e-01
   outer loop
     vertex  2.860000e+00  2.860000e+00  8.894000e+00
     vertex  2.604000e+00  2.476000e+00  9.150000e+00
     vertex  2.860000e+00  2.220000e+00  8.894000e+00
   endloop
 endfacet
 facet normal  7.071068e-01 -1.962616e-14  7.071068e-01
   outer loop
     vertex  2.604000e+00  2.604000e+00  9.150000e+00
     vertex  2.604000e+00  2.476000e+00  9.150000e+00
     vertex  2.860000e+00  2.860000e+00  8.894000e+00
   endloop
 endfacet
 facet normal -1.000000e+00  0.000000e+00  0.000000e+00
   outer loop
     vertex  4.760000e+00  3.200000e-01 -3.294000e+00
     vertex  4.760000e+00 -3.200000e-01 -3.294000e+00
     vertex  4.760000e+00 -3.200000e-01  8.894000e+00
   endloop
 endfacet
 facet normal -1.000000e+00  1.387779e-15  7.287319e-17
   outer loop
     vertex  4.760000e+00  3.200000e-01  8.894000e+00
     vertex  4.760000e+00  3.200000e-01 -3.294000e+00
     vertex  4.760000e+00 -3.200000e-01  8.894000e+00
   endloop
 endfacet
 facet normal  0.000000e+00 -1.000000e+00  4.554574e-17
   outer loop
     vertex  4.760000e+00 -3.200000e-01 -3.294000e+00
     vertex  5.400000e+00 -3.200000e-01 -3.294000e+00
     vertex  5.400000e+00 -3.200000e-01  8.894000e+00
   endloop
 endfacet
 facet normal  0.000000e+00 -1.000000e+00  4.554574e-17
   outer loop
     vertex  4.760000e+00 -3.200000e-01  8.894000e+00
     vertex  4.760000e+00 -3.200000e-01 -3.294000e+00
     vertex  5.400000e+00 -3.200000e-01  8.894000e+00
   endloop
 endfacet
 facet normal -7.071068e-01 -0.000000e+00 -7.071068e-01
   outer loop
     vertex  5.016000e+00  6.400000e-02 -3.550000e+00
     vertex  5.016000e+00 -6.400000e-02 -3.550000e+00
     vertex  4.760000e+00 -3.200000e-01 -3.294000e+00
   endloop
 endfacet
 facet normal -7.071068e-01  0.000000e+00 -7.071068e-01
   outer loop
     vertex  5.016000e+00  6.400000e-02 -3.550000e+00
     vertex  4.760000e+00 -3.200000e-01 -3.294000e+00
     vertex  4.760000e+00  3.200000e-01 -3.294000e+00
   endloop
 endfacet
 facet normal -7.071068e-01  9.583084e-16  7.071068e-01
   outer loop
     vertex  4.760000e+00 -3.200000e-01  8.894000e+00
     vertex  5.016000e+00 -6.400000e-02  9.150000e+00
     vertex  4.760000e+00  3.200000e-01  8.894000e+00
   endloop
 endfacet
 facet normal -7.071068e-01  0.000000e+00  7.071068e-01
   outer loop
     vertex  4.760000e+00  3.200000e-01  8.894000e+00
     vertex  5.016000e+00 -6.400000e-02  9.150000e+00
     vertex  5.016000e+00  6.400000e-02  9.150000e+00
   endloop
 endfacet
 facet normal  0.000000e+00  1.000000e+00  4.554574e-17
   outer loop
     vertex  5.400000e+00  3.200000e-01  8.894000e+00
     vertex  5.400000e+00  3.200000e-01 -3.294000e+00
     vertex  4.760000e+00  3.200000e-01 -3.294000e+00
   endloop
 endfacet
 facet normal  8.673617e-16  1.000000e+00 -6.320742e-32
   outer loop
     vertex  5.400000e+00  3.200000e-01  8.894000e+00
     vertex  4.760000e+00  3.200000e-01 -3.294000e+00
     vertex  4.760000e+00  3.200000e-01  8.894000e+00
   endloop
 endfacet
 facet normal  1.000000e+00 -0.000000e+00  0.000000e+00
   outer loop
     vertex  5.400000e+00 -3.200000e-01  8.894000e+00
     vertex  5.400000e+00 -3.200000e-01 -3.294000e+00
     vertex  5.400000e+00  3.200000e-01 -3.294000e+00
   endloop
 endfacet
 facet normal  1.000000e+00 -0.000000e+00 -0.000000e+00
   outer loop
     vertex  5.400000e+00 -3.200000e-01  8.894000e+00
     vertex  5.400000e+00  3.200000e-01 -3.294000e+00
     vertex  5.400000e+00  3.200000e-01  8.894000e+00
   endloop
 endfacet
 facet normal  0.000000e+00 -7.071068e-01 -7.071068e-01
   outer loop
     vertex  4.760000e+00 -3.200000e-01 -3.294000e+00
     vertex  5.016000e+00 -6.400000e-02 -3.550000e+00
     vertex  5.144000e+00 -6.400000e-02 -3.550000e+00
   endloop
 endfacet
 facet normal -0.000000e+00 -7.071068e-01 -7.071068e-01
   outer loop
     vertex  5.400000e+00 -3.200000e-01 -3.294000e+00
     vertex  4.760000e+00 -3.200000e-01 -3.294000e+00
     vertex  5.144000e+00 -6.400000e-02 -3.550000e+00
   endloop
 endfacet
 facet normal  0.000000e+00 -7.071068e-01  7.071068e-01
   outer loop
     vertex  5.400000e+00 -3.200000e-01  8.894000e+00
     vertex  5.016000e+00 -6.400000e-02  9.150000e+00
     vertex  4.760000e+00 -3.200000e-01  8.894000e+00
   endloop
 endfacet
 facet normal  0.000000e+00 -7.071068e-01  7.071068e-01
   outer loop
     vertex  5.144000e+00 -6.400000e-02  9.150000e+00
     vertex  5.016000e+00 -6.400000e-02  9.150000e+00
     vertex  5.400000e+00 -3.200000e-01  8.894000e+00
   endloop
 endfacet
 facet normal  0.000000e+00  0.000000e+00 -1.000000e+00
   outer loop
     vertex  5.144000e+00 -6.400000e-02 -3.550000e+00
     vertex  5.016000e+00 -6.400000e-02 -3.550000e+00
     vertex  5.144000e+00  6.400000e-02 -3.550000e+00
   endloop
 endfacet
 facet normal  0.000000e+00  0.000000e+00 -1.000000e+00
   outer loop
     vertex  5.016000e+00 -6.400000e-02 -3.550000e+00
     vertex  5.016000e+00  6.400000e-02 -3.550000e+00
     vertex  5.144000e+00  6.400000e-02 -3.550000e+00
   endloop
 endfacet
 facet normal  0.000000e+00  7.071068e-01 -7.071068e-01
   outer loop
     vertex  5.144000e+00  6.400000e-02 -3.550000e+00
     vertex  5.016000e+00  6.400000e-02 -3.550000e+00
     vertex  4.760000e+00  3.200000e-01 -3.294000e+00
   endloop
 endfacet
 facet normal  0.000000e+00  7.071068e-01 -7.071068e-01
   outer loop
     vertex  5.144000e+00  6.400000e-02 -3.550000e+00
     vertex  4.760000e+00  3.200000e-01 -3.294000e+00
     vertex  5.400000e+00  3.200000e-01 -3.294000e+00
   endloop
 endfacet
 facet normal -0.000000e+00  0.000000e+00  1.000000e+00
   outer loop
     vertex  5.016000e+00  6.400000e-02  9.150000e+00
     vertex  5.016000e+00 -6.400000e-02  9.150000e+00
     vertex  5.144000e+00 -6.400000e-02  9.150000e+00
   endloop
 endfacet
 facet normal -2.775558e-14 -2.775558e-14  1.000000e+00
   outer loop
     vertex  5.144000e+00  6.400000e-02  9.150000e+00
     vertex  5.016000e+00  6.400000e-02  9.150000e+00
     vertex  5.144000e+00 -6.400000e-02  9.150000e+00
   endloop
 endfacet
 facet normal  5.989427e-16  7.071068e-01  7.071068e-01
   outer loop
     vertex  4.760000e+00  3.200000e-01  8.894000e+00
     vertex  5.016000e+00  6.400000e-02  9.150000e+00
     vertex  5.400000e+00  3.200000e-01  8.894000e+00
   endloop
 endfacet
 facet normal -1.962616e-14  7.071068e-01  7.071068e-01
   outer loop
     vertex  5.400000e+00  3.200000e-01  8.894000e+00
     vertex  5.016000e+00  6.400000e-02  9.150000e+00
     vertex  5.144000e+00  6.400000e-02  9.150000e+00
   endloop
 endfacet
 facet normal  7.071068e-01  0.000000e+00 -7.071068e-01
   outer loop
     vertex  5.400000e+00 -3.200000e-01 -3.294000e+00
     vertex  5.144000e+00 -6.400000e-02 -3.550000e+00
     vertex  5.400000e+00  3.200000e-01 -3.294000e+00
   endloop
 endfacet
 facet normal  7.071068e-01  0.000000e+00 -7.071068e-01
   outer loop
     vertex  5.400000e+00  3.200000e-01 -3.294000e+00
     vertex  5.144000e+00 -6.400000e-02 -3.550000e+00
     vertex  5.144000e+00  6.400000e-02 -3.550000e+00
   endloop
 endfacet
 facet normal  7.071068e-01  0.000000e+00  7.071068e-01
   outer loop
     vertex  5.400000e+00  3.200000e-01  8.894000e+00
     vertex  5.144000e+00 -6.400000e-02  9.150000e+00
     vertex  5.400000e+00 -3.200000e-01  8.894000e+00
   endloop
 endfacet
 facet normal  7.071068e-01 -1.962616e-14  7.071068e-01
   outer loop
     vertex  5.144000e+00  6.400000e-02  9.150000e+00
     vertex  5.144000e+00 -6.400000e-02  9.150000e+00
     vertex  5.400000e+00  3.200000e-01  8.894000e+00
   endloop
 endfacet
 facet normal -1.000000e+00  0.000000e+00  0.000000e+00
   outer loop
     vertex  4.760000e+00  2.860000e+00 -3.294000e+00
     vertex  4.760000e+00  2.220000e+00 -3.294000e+00
     vertex  4.760000e+00  2.220000e+00  8.894000e+00
   endloop
 endfacet
 facet normal -1.000000e+00  1.387779e-15  7.287319e-17
   outer loop
     vertex  4.760000e+00  2.860000e+00  8.894000e+00
     vertex  4.760000e+00  2.860000e+00 -3.294000e+00
     vertex  4.760000e+00  2.220000e+00  8.894000e+00
   endloop
 endfacet
 facet normal  0.000000e+00 -1.000000e+00  7.287319e-17
   outer loop
     vertex  4.760000e+00  2.220000e+00 -3.294000e+00
     vertex  5.400000e+00  2.220000e+00 -3.294000e+00
     vertex  5.400000e+00  2.220000e+00  8.894000e+00
   endloop
 endfacet
 facet normal  0.000000e+00 -1.000000e+00  7.287319e-17
   outer loop
     vertex  4.760000e+00  2.220000e+00  8.894000e+00
     vertex  4.760000e+00  2.220000e+00 -3.294000e+00
     vertex  5.400000e+00  2.220000e+00  8.894000e+00
   endloop
 endfacet
 facet normal -7.071068e-01 -0.000000e+00 -7.071068e-01
   outer loop
     vertex  5.016000e+00  2.604000e+00 -3.550000e+00
     vertex  5.016000e+00  2.476000e+00 -3.550000e+00
     vertex  4.760000e+00  2.220000e+00 -3.294000e+00
   endloop
 endfacet
 facet normal -7.071068e-01  0.000000e+00 -7.071068e-01
   outer loop
     vertex  5.016000e+00  2.604000e+00 -3.550000e+00
     vertex  4.760000e+00  2.220000e+00 -3.294000e+00
     vertex  4.760000e+00  2.860000e+00 -3.294000e+00
   endloop
 endfacet
 facet normal -7.071068e-01  9.583084e-16  7.071068e-01
   outer loop
     vertex  4.760000e+00  2.220000e+00  8.894000e+00
     vertex  5.016000e+00  2.476000e+00  9.150000e+00
     vertex  4.760000e+00  2.860000e+00  8.894000e+00
   endloop
 endfacet
 facet normal -7.071068e-01  0.000000e+00  7.071068e-01
   outer loop
     vertex  4.760000e+00  2.860000e+00  8.894000e+00
     vertex  5.016000e+00  2.476000e+00  9.150000e+00
     vertex  5.016000e+00  2.604000e+00  9.150000e+00
   endloop
 endfacet
 facet normal  0.000000e+00  1.000000e+00  3.643659e-17
   outer loop
     vertex  5.400000e+00  2.860000e+00  8.894000e+00
     vertex  5.400000e+00  2.860000e+00 -3.294000e+00
     vertex  4.760000e+00  2.860000e+00 -3.294000e+00
   endloop
 endfacet
 facet normal  6.938894e-16  1.000000e+00 -5.056593e-32
   outer loop
     vertex  5.400000e+00  2.860000e+00  8.894000e+00
     vertex  4.760000e+00  2.860000e+00 -3.294000e+00
     vertex  4.760000e+00  2.860000e+00  8.894000e+00
   endloop
 endfacet
 facet normal  1.000000e+00 -0.000000e+00  0.000000e+00
   outer loop
     vertex  5.400000e+00  2.220000e+00  8.894000e+00
     vertex  5.400000e+00  2.220000e+00 -3.294000e+00
     vertex  5.400000e+00  2.860000e+00 -3.294000e+00
   endloop
 endfacet
 facet normal  1.000000e+00 -0.000000e+00 -0.000000e+00
   outer loop
     vertex  5.400000e+00  2.220000e+00  8.894000e+00
     vertex  5.400000e+00  2.860000e+00 -3.294000e+00
     vertex  5.400000e+00  2.860000e+00  8.894000e+00
   endloop
 endfacet
 facet normal  0.000000e+00 -7.071068e-01 -7.071068e-01
   outer loop
     vertex  4.760000e+00  2.220000e+00 -3.294000e+00
     vertex  5.016000e+00  2.476000e+00 -3.550000e+00
     vertex  5.144000e+00  2.476000e+00 -3.550000e+00
   endloop
 endfacet
 facet normal -0.000000e+00 -7.071068e-01 -7.071068e-01
   outer loop
     vertex  5.400000e+00  2.220000e+00 -3.294000e+00
     vertex  4.760000e+00  2.220000e+00 -3.294000e+00
     vertex  5.144000e+00  2.476000e+00 -3.550000e+00
   endloop
 endfacet
 facet normal  0.000000e+00 -7.071068e-01  7.071068e-01
   outer loop
     vertex  5.400000e+00  2.220000e+00  8.894000e+00
     vertex  5.016000e+00  2.476000e+00  9.150000e+00
     vertex  4.760000e+00  2.220000e+00  8.894000e+00
   endloop
 endfacet
 facet normal  0.000000e+00 -7.071068e-01  7.071068e-01
   outer loop
     vertex  5.144000e+00  2.476000e+00  9.150000e+00
     vertex  5.016000e+00  2.476000e+00  9.150000e+00
     vertex  5.400000e+00  2.220000e+00  8.894000e+00
   endloop
 endfacet
 facet normal  0.000000e+00  0.000000e+00 -1.000000e+00
   outer loop
     vertex  5.144000e+00  2.476000e+00 -3.550000e+00
     vertex  5.016000e+00  2.476000e+00 -3.550000e+00
     vertex  5.144000e+00  2.604000e+00 -3.550000e+00
   endloop
 endfacet
 facet normal  0.000000e+00  0.000000e+00 -1.000000e+00
   outer loop
     vertex  5.016000e+00  2.476000e+00 -3.550000e+00
     vertex  5.016000e+00  2.604000e+00 -3.550000e+00
     vertex  5.144000e+00  2.604000e+00 -3.550000e+00
   endloop
 endfacet
 facet normal  0.000000e+00  7.071068e-01 -7.071068e-01
   outer loop
     vertex  5.144000e+00  2.604000e+00 -3.550000e+00
     vertex  5.016000e+00  2.604000e+00 -3.550000e+00
     vertex  4.760000e+00  2.860000e+00 -3.294000e+00
   endloop
 endfacet
 facet normal  0.000000e+00  7.071068e-01 -7.071068e-01
   outer loop
     vertex  5.144000e+00  2.604000e+00 -3.550000e+00
     vertex  4.760000e+00  2.860000e+00 -3.294000e+00
     vertex  5.400000e+00  2.860000e+00 -3.294000e+00
   endloop
 endfacet
 facet normal -0.000000e+00  0.000000e+00  1.000000e+00
   outer loop
     vertex  5.016000e+00  2.604000e+00  9.150000e+00
     vertex  5.016000e+00  2.476000e+00  9.150000e+00
     vertex  5.144000e+00  2.476000e+00  9.150000e+00
   endloop
 endfacet
 facet normal -2.775558e-14 -2.775558e-14  1.000000e+00
   outer loop
     vertex  5.144000e+00  2.604000e+00  9.150000e+00
     vertex  5.016000e+00  2.604000e+00  9.150000e+00
     vertex  5.144000e+00  2.476000e+00  9.150000e+00
   endloop
 endfacet
 facet normal  4.791542e-16  7.071068e-01  7.071068e-01
   outer loop
     vertex  4.760000e+00  2.860000e+00  8.894000e+00
     vertex  5.016000e+00  2.604000e+00  9.150000e+00
     vertex  5.400000e+00  2.860000e+00  8.894000e+00
   endloop
 endfacet
 facet normal -1.962616e-14  7.071068e-01  7.071068e-01
   outer loop
     vertex  5.400000e+00  2.860000e+00  8.894000e+00
     vertex  5.016000e+00  2.604000e+00  9.150000e+00
     vertex  5.144000e+00  2.604000e+00  9.150000e+00
   endloop
 endfacet
 facet normal  7.071068e-01  0.000000e+00 -7.071068e-01
   outer loop
     vertex  5.400000e+00  2.220000e+00 -3.294000e+00
     vertex  5.144000e+00  2.476000e+00 -3.550000e+00
     vertex  5.144000e+00  2.604000e+00 -3.550000e+00
   endloop
 endfacet
 facet normal  7.071068e-01  0.000000e+00 -7.071068e-01
   outer loop
     vertex  5.400000e+00  2.860000e+00 -3.294000e+00
     vertex  5.400000e+00  2.220000e+00 -3.294000e+00
     vertex  5.144000e+00  2.604000e+00 -3.550000e+00
   endloop
 endfacet
 facet normal  7.071068e-01  0.000000e+00  7.071068e-01
   outer loop
     vertex  5.400000e+00  2.860000e+00  8.894000e+00
     vertex  5.144000e+00  2.476000e+00  9.150000e+00
     vertex  5.400000e+00  2.220000e+00  8.894000e+00
   endloop
 endfacet
 facet normal  7.071068e-01 -1.962616e-14  7.071068e-01
   outer loop
     vertex  5.144000e+00  2.604000e+00  9.150000e+00
     vertex  5.144000e+00  2.476000e+00  9.150000e+00
     vertex  5.400000e+00  2.860000e+00  8.894000e+00
   endloop
 endfacet
endsolid
